<svg width="501" height="461" viewBox="0 0 501 461" fill="none" xmlns="http://www.w3.org/2000/svg">
<path fill-rule="evenodd" clip-rule="evenodd" d="M275.23 4.50658H237.73V0.348694H275.23V4.50658ZM275.23 17.0066H150.706V12.8487H275.23V17.0066ZM275.23 29.5065H143.98V25.3486H275.23V29.5065ZM275.23 42.0065H156.48V37.8486H275.23V42.0065ZM268.98 54.5065H181.48V50.3486H268.98V54.5065ZM268.98 67.0065H187.73V62.8486H268.98V67.0065ZM412.73 67.0065H368.98V62.8486H412.73V67.0065ZM106.48 73.2565H72.1054V69.0986H106.48V73.2565ZM250.23 79.5064H193.98V75.3486H250.23V79.5064ZM425.23 79.5064H343.98V75.3486H425.23V79.5064ZM112.73 85.7564H56.4804V81.5985H112.73V85.7564ZM237.73 92.0064H193.98V87.8485H237.73V92.0064ZM431.48 92.0064H331.48V87.8485H431.48V92.0064ZM112.73 98.2564H50.2304V94.0985H112.73V98.2564ZM225.23 104.506H200.23V100.349H225.23V104.506ZM443.98 104.506H318.98V100.349H443.98V104.506ZM106.48 110.756H37.7304V106.598H106.48V110.756ZM456.48 117.006H312.73V112.848H456.48V117.006ZM100.23 123.256H31.4804V119.098H100.23V123.256ZM462.73 129.506H306.48V125.348H462.73V129.506ZM93.9803 135.756H25.2304V131.598H93.9803V135.756ZM468.98 142.006H300.23V137.848H468.98V142.006ZM93.9803 144.098V148.256H18.9804V144.098H93.9803ZM156.48 148.256H118.98V144.098H156.48V148.256ZM475.23 154.506H293.98V150.348H475.23V154.506ZM168.98 160.756H13.727V156.598H168.98V160.756ZM475.23 167.006H287.73V162.848H475.23V167.006ZM175.23 173.256H10.5341V169.098H175.23V173.256ZM481.48 179.506H287.73V175.348H481.48V179.506ZM162.73 185.756H6.48046V181.598H162.73V185.756ZM350.23 187.848V192.006H287.73V187.848H350.23ZM487.73 192.006H425.23V187.848H487.73V192.006ZM156.48 198.256H3.79354V194.098H156.48V198.256ZM331.48 204.506H287.73V200.348H331.48V204.506ZM487.73 200.348V204.506H400.23V200.348H487.73ZM143.99 210.756L2.59128 211.411L2.57203 207.253L143.971 206.598L143.99 210.756ZM493.98 212.848V217.006H393.98V212.848H493.98ZM143.98 219.098V223.256H0.230469V219.098H143.98ZM493.98 225.348V229.506H393.98V225.348H493.98ZM112.73 235.756H6.48046V231.598H112.73V235.756ZM343.98 235.756H300.23V231.598H343.98V235.756ZM443.98 242.006H400.23V237.848H443.98V242.006ZM493.98 242.006H462.73V237.848H493.98V242.006ZM68.9804 244.098V248.256H6.48046V244.098H68.9804ZM356.48 244.098V248.256H281.48V244.098H356.48ZM450.23 254.506H406.48V250.348H450.23V254.506ZM493.98 254.506H462.73V250.348H493.98V254.506ZM62.7304 260.756H18.9804V256.598H62.7304V260.756ZM362.73 260.756H268.98V256.598H362.73V260.756ZM456.48 267.006H412.73V262.848H456.48V267.006ZM493.98 262.848V267.006H468.98V262.848H493.98ZM56.4804 273.256H25.2304V269.098H56.4804V273.256ZM368.98 273.256H262.73V269.098H368.98V273.256ZM431.48 279.967V275.809H456.48V279.967H431.48ZM500.23 279.967H475.231V275.809H500.23V279.967ZM68.9804 285.756H37.7304V281.598H68.9804V285.756ZM375.23 285.756H256.48V281.598H375.23V285.756ZM462.73 290.361H445.46V286.203H462.73V290.361ZM81.4803 298.256H50.2304V294.098H81.4803V298.256ZM381.48 294.098V298.256H256.48V294.098H381.48ZM106.48 310.756H75.2303V306.598H106.48V310.756ZM393.98 310.756H256.48V306.598H393.98V310.756ZM143.98 323.256H87.7303V319.098H143.98V323.256ZM412.73 323.256H268.98V319.098H412.73V323.256ZM175.23 335.756H87.7303V331.598H175.23V335.756ZM412.73 331.598V335.756H287.73V331.598H412.73ZM193.98 348.256H87.7303V344.098H193.98V348.256ZM406.48 348.256H312.73V344.098H406.48V348.256ZM200.23 360.756H81.4803V356.598H200.23V360.756ZM406.48 360.756H325.23V356.598H406.48V360.756ZM200.23 373.256H75.2303V369.098H200.23V373.256ZM400.23 373.256H331.48V369.098H400.23V373.256ZM193.98 385.756H81.4803V381.598H193.98V385.756ZM400.23 385.756H331.48V381.598H400.23V385.756ZM193.98 398.256H106.48V394.098H193.98V398.256ZM393.98 394.098V398.256H331.48V394.098H393.98ZM187.73 410.756H112.73V406.598H187.73V410.756ZM387.73 410.756H325.23V406.598H387.73V410.756ZM181.48 423.256H118.98V419.098H181.48V423.256ZM387.73 423.256H325.23V419.098H387.73V423.256ZM175.23 431.598V435.756H112.73V431.598H175.23ZM375.23 431.598V435.756H325.23V431.598H375.23ZM168.98 448.256H112.73V444.098H168.98V448.256ZM368.98 448.256H337.73V444.098H368.98V448.256ZM162.724 460.756L122.486 460.637L122.498 456.479L162.736 456.598L162.724 460.756Z" fill="#28C4A4"/>
</svg>
