<svg width="160" height="160" viewBox="0 0 160 160" fill="none" xmlns="http://www.w3.org/2000/svg">
<path d="M65.0176 151.239L65.384 150.012L54.0397 146.623L53.6732 147.849L65.0176 151.239Z" fill="#0B1014"/>
<path d="M29.5117 136.179L28.412 135.249C28.022 135.744 27.7679 136.234 27.6498 136.721C27.5166 137.209 27.5002 137.691 27.6006 138.167C27.6929 138.636 27.8857 139.085 28.1791 139.515C28.4724 139.944 28.8431 140.349 29.2911 140.727C29.6903 141.065 30.126 141.342 30.5984 141.56C31.0558 141.779 31.5246 141.91 32.0051 141.953C32.4705 141.997 32.9305 141.932 33.3852 141.758C33.833 141.592 34.2428 141.289 34.6147 140.849C34.9521 140.45 35.1571 140.05 35.2295 139.651C35.287 139.252 35.2577 138.857 35.1416 138.466C35.0105 138.076 34.8228 137.687 34.5783 137.298C34.327 136.918 34.0646 136.543 33.7914 136.172C33.5031 135.803 33.2229 135.44 32.9509 135.085C32.6789 134.729 32.4642 134.38 32.3069 134.037C32.1345 133.696 32.0501 133.366 32.0537 133.048C32.0491 132.723 32.1743 132.41 32.4291 132.108C32.6976 131.791 32.9832 131.585 33.2857 131.492C33.5882 131.398 33.8969 131.38 34.212 131.437C34.5202 131.502 34.8294 131.623 35.1395 131.802C35.4415 131.973 35.7229 132.169 35.9835 132.389C36.3094 132.665 36.5926 132.974 36.8333 133.317C37.074 133.661 37.2401 134.017 37.3317 134.388C37.4152 134.752 37.4201 135.126 37.3463 135.511C37.2576 135.897 37.0583 136.273 36.7484 136.64L37.8481 137.569C38.2957 137.04 38.5911 136.5 38.7343 135.951C38.8624 135.403 38.8703 134.865 38.758 134.337C38.6306 133.81 38.4027 133.303 38.0742 132.816C37.7376 132.322 37.325 131.868 36.8362 131.455C36.4371 131.118 35.9966 130.829 35.5148 130.59C35.0318 130.335 34.5412 130.172 34.0432 130.1C33.5384 130.036 33.0464 130.081 32.5673 130.235C32.0731 130.39 31.6298 130.699 31.2373 131.164C30.8723 131.595 30.6508 132.023 30.5727 132.445C30.4864 132.861 30.4985 133.277 30.6089 133.691C30.7112 134.099 30.8846 134.497 31.129 134.885C31.3666 135.282 31.6261 135.669 31.9075 136.046C32.1808 136.417 32.4569 136.776 32.7358 137.123C33.0078 137.479 33.2334 137.824 33.4127 138.157C33.5838 138.483 33.682 138.796 33.7072 139.097C33.7174 139.399 33.6088 139.684 33.3816 139.953C33.1405 140.238 32.8879 140.43 32.6236 140.528C32.3443 140.627 32.0668 140.657 31.7912 140.62C31.5074 140.576 31.2268 140.478 30.9492 140.327C30.6717 140.176 30.4107 139.998 30.1663 139.791C29.5636 139.282 29.1912 138.722 29.0494 138.114C28.8925 137.506 29.0466 136.861 29.5117 136.179Z" fill="#0B1014"/>
<path d="M17.1998 121.839L16.3033 120.612C15.8627 121.039 15.5389 121.5 15.3321 121.995C15.1166 122.496 15.0067 123.005 15.0022 123.524C14.9978 124.042 15.0882 124.564 15.2735 125.089C15.4589 125.614 15.7277 126.118 16.08 126.6C16.5959 127.306 17.1843 127.841 17.8454 128.203C18.4915 128.564 19.1695 128.769 19.8793 128.818C20.5828 128.859 21.301 128.757 22.0338 128.513C22.7579 128.274 23.4559 127.91 24.1278 127.419C24.7997 126.928 25.3656 126.383 25.8256 125.783C26.2792 125.174 26.5924 124.536 26.7652 123.868C26.938 123.201 26.9542 122.509 26.814 121.792C26.6651 121.082 26.3296 120.369 25.8075 119.654C24.9456 118.474 23.9432 117.78 22.8001 117.571C21.6571 117.362 20.4601 117.622 19.2091 118.351L20.1056 119.579C20.5035 119.328 20.9133 119.147 21.335 119.037C21.7567 118.928 22.173 118.901 22.5841 118.957C22.9802 119.011 23.3636 119.147 23.7342 119.366C24.0899 119.581 24.4155 119.892 24.7112 120.296C25.1138 120.848 25.3565 121.397 25.4391 121.944C25.5218 122.491 25.4852 123.02 25.3294 123.53C25.1586 124.038 24.8847 124.522 24.5076 124.982C24.1219 125.449 23.6664 125.874 23.1409 126.258C22.6585 126.61 22.1493 126.889 21.6133 127.096C21.0773 127.303 20.5458 127.407 20.0188 127.409C19.4769 127.408 18.9611 127.289 18.4712 127.053C17.9751 126.808 17.5257 126.409 17.1231 125.858C16.6513 125.212 16.4092 124.537 16.3968 123.833C16.3781 123.12 16.6458 122.455 17.1998 121.839Z" fill="#0B1014"/>
<path d="M8.79102 114.078L19.3459 109.708L18.7644 108.303L14.2557 110.17L12.8355 106.741C12.6927 106.396 12.6326 106.097 12.6554 105.845C12.6682 105.598 12.7368 105.373 12.8611 105.171C12.9756 104.974 13.1389 104.797 13.3509 104.64C13.5531 104.487 13.7742 104.337 14.0141 104.192C14.2499 104.036 14.4988 103.899 14.7608 103.779C15.0228 103.659 15.2701 103.545 15.5025 103.437C15.7251 103.333 15.9239 103.228 16.0989 103.121C16.2698 103.004 16.3891 102.874 16.4567 102.73L15.8078 101.163C15.6917 101.384 15.5366 101.581 15.3425 101.754C15.1346 101.921 14.9106 102.077 14.6707 102.223C14.4308 102.368 14.1799 102.501 13.9179 102.621C13.6558 102.741 13.4008 102.864 13.1527 102.99C12.9087 103.126 12.6807 103.272 12.4687 103.429C12.2526 103.576 12.0754 103.748 11.9371 103.944C11.7849 104.134 11.6806 104.356 11.6242 104.61C11.5638 104.854 11.5673 105.141 11.6346 105.471L11.6051 105.484C11.1624 104.917 10.6405 104.59 10.0392 104.504C9.4339 104.409 8.81094 104.493 8.17035 104.759C7.31295 105.114 6.75622 105.679 6.50014 106.455C6.23999 107.22 6.31804 108.106 6.73428 109.111L8.79102 114.078ZM11.861 107.733L13.073 110.66L9.39212 112.184L7.94751 108.695C7.6741 108.035 7.64371 107.488 7.85636 107.053C8.06902 106.619 8.44143 106.291 8.97361 106.071C9.35796 105.912 9.7019 105.85 10.0054 105.886C10.295 105.917 10.5606 106.014 10.8023 106.18C11.0301 106.339 11.2298 106.557 11.4015 106.832C11.5732 107.107 11.7264 107.408 11.861 107.733Z" fill="#0B1014"/>
<path d="M8.30191 94.9989C7.73214 95.0833 7.16196 95.0924 6.5914 95.026C6.01028 94.9612 5.47468 94.8033 4.9846 94.5525C4.49452 94.3016 4.08083 93.9478 3.74354 93.491C3.39569 93.0357 3.17093 92.4652 3.06927 91.7793C2.96761 91.0935 3.01719 90.4823 3.21801 89.9457C3.40828 89.4107 3.70154 88.9521 4.09777 88.5698C4.49401 88.1876 4.96079 87.8812 5.49812 87.6506C6.02489 87.4215 6.57317 87.2648 7.14294 87.1803C7.71272 87.0958 8.28816 87.086 8.86928 87.1509C9.43985 87.2172 9.97017 87.3759 10.4603 87.6267C10.9503 87.8776 11.3693 88.2306 11.7171 88.6859C12.0544 89.1427 12.2739 89.714 12.3756 90.3998C12.4772 91.0857 12.4329 91.6961 12.2427 92.2311C12.0418 92.7677 11.7433 93.2271 11.3471 93.6093C10.9508 93.9916 10.4893 94.2972 9.96256 94.5263C9.42523 94.7569 8.87169 94.9144 8.30191 94.9989ZM8.52479 96.5024C9.29504 96.3883 10.0225 96.1672 10.7071 95.8393C11.3797 95.5024 11.9566 95.0664 12.4381 94.5313C12.9195 93.9963 13.2737 93.3669 13.5007 92.6431C13.7171 91.9209 13.7589 91.1114 13.6259 90.2145C13.493 89.3176 13.2182 88.555 12.8015 87.9266C12.3743 87.2998 11.8528 86.8003 11.2369 86.4279C10.6209 86.0555 9.94308 85.8109 9.20329 85.6941C8.45139 85.5684 7.69031 85.5626 6.92006 85.6767C6.14981 85.7909 5.42842 86.0165 4.75589 86.3534C4.07124 86.6813 3.48821 87.1128 3.00679 87.6478C2.52537 88.1829 2.17117 88.8123 1.94418 89.5361C1.71718 90.2598 1.67016 91.0702 1.8031 91.967C1.93605 92.8639 2.21612 93.6257 2.64331 94.2525C3.0705 94.8793 3.59206 95.3789 4.20799 95.7513C4.82392 96.1237 5.50783 96.3728 6.25973 96.4985C6.99952 96.6153 7.75454 96.6166 8.52479 96.5024Z" fill="#0B1014"/>
<path d="M1.16211 76.5562L12.546 77.5126L13.1796 69.9712L11.9041 69.864L11.3978 75.8908L1.28937 75.0415L1.16211 76.5562Z" fill="#0B1014"/>
<path d="M3.44727 60.7686L14.4074 63.9908L16.542 56.73L15.314 56.369L13.6081 62.1715L3.87599 59.3103L3.44727 60.7686Z" fill="#0B1014"/>
<path d="M23.5436 40.6052L16.509 35.2121L18.0665 33.1805C18.4949 32.6218 18.9355 32.2136 19.3884 31.956C19.8328 31.6919 20.2982 31.5581 20.7847 31.5547C21.2692 31.5364 21.7662 31.6419 22.2758 31.8713C22.7834 32.0857 23.3081 32.4006 23.8499 32.816C24.4086 33.2443 24.8415 33.6703 25.1485 34.0938C25.4535 34.5024 25.6691 34.8961 25.7952 35.2751C25.9214 35.654 25.973 36.0162 25.9502 36.3616C25.9338 36.6985 25.8803 37.0137 25.7898 37.3071C25.6907 37.5941 25.576 37.8489 25.4457 38.0716C25.3068 38.2877 25.1855 38.4635 25.0817 38.5989L23.5436 40.6052ZM14.5684 35.6396L23.6346 42.5903L26.0196 39.4793C26.5972 38.7259 26.9911 37.993 27.2013 37.2805C27.4115 36.568 27.454 35.8815 27.3287 35.2209C27.1949 34.5538 26.9009 33.9118 26.4466 33.2947C25.9838 32.6711 25.3715 32.0672 24.6097 31.4831C23.1536 30.3669 21.7813 29.9129 20.4926 30.1212C19.2039 30.3294 18.0242 31.1319 16.9534 32.5287L14.5684 35.6396Z" fill="#0B1014"/>
<path d="M31.5414 24.9171C31.1864 24.4635 30.8967 23.9723 30.6725 23.4434C30.4416 22.9062 30.3142 22.3626 30.29 21.8126C30.2659 21.2625 30.3691 20.728 30.5995 20.209C30.8234 19.6817 31.2083 19.2043 31.7543 18.777C32.3002 18.3496 32.8561 18.0907 33.4218 18.0001C33.981 17.9011 34.5246 17.9294 35.0527 18.0849C35.5808 18.2405 36.0779 18.4949 36.5439 18.848C37.0034 19.1928 37.4106 19.5919 37.7656 20.0455C38.1207 20.4991 38.4136 20.9945 38.6444 21.5317C38.8687 22.0606 38.9929 22.6 39.017 23.15C39.0411 23.7 38.9413 24.2387 38.7174 24.7661C38.487 25.2851 38.0988 25.7583 37.5528 26.1856C37.0068 26.6129 36.4542 26.8761 35.8951 26.9751C35.3293 27.0657 34.7824 27.0332 34.2543 26.8776C33.7262 26.7221 33.2324 26.4719 32.773 26.1272C32.3069 25.774 31.8964 25.3706 31.5414 24.9171ZM30.3444 25.8539C30.8243 26.4671 31.376 26.9902 31.9995 27.4234C32.6247 27.8415 33.2889 28.1276 33.992 28.2817C34.695 28.4358 35.4172 28.4327 36.1586 28.2723C36.8934 28.1036 37.6178 27.7398 38.3318 27.181C39.0458 26.6222 39.573 26.0064 39.9133 25.3336C40.2471 24.6525 40.4237 23.9522 40.443 23.2327C40.4623 22.5132 40.34 21.803 40.0759 21.1022C39.8136 20.3864 39.4425 19.7219 38.9626 19.1087C38.4827 18.4955 37.9301 17.9798 37.3048 17.5617C36.6814 17.1285 36.0181 16.8349 35.3151 16.6808C34.612 16.5267 33.8898 16.5299 33.1484 16.6902C32.407 16.8506 31.6793 17.2102 30.9653 17.769C30.2514 18.3278 29.7275 18.9478 29.3937 19.6289C29.0599 20.3101 28.8834 21.0104 28.864 21.7299C28.8447 22.4494 28.9662 23.167 29.2284 23.8828C29.4925 24.5837 29.8645 25.2407 30.3444 25.8539Z" fill="#0B1014"/>
<path d="M58.2368 15.883L56.7225 4.15461L55.3165 4.7322L56.782 14.4049L56.7524 14.417L50.8026 6.58657L49.2782 7.2128L50.5217 16.9767L50.4921 16.9888L44.8086 9.04892L43.373 9.63867L50.4225 19.0931L51.8876 18.4912L50.6817 8.60814L50.7113 8.59598L56.7716 16.4849L58.2368 15.883Z" fill="#0B1014"/>
<path d="M65.7461 2.11426L67.1444 13.4524L68.5736 13.2761L67.4514 4.17703L67.4832 4.17312L74.5285 12.5417L76.18 12.338L74.7816 0.999896L73.3525 1.17616L74.4864 10.3705L74.4547 10.3744L67.3499 1.91645L65.7461 2.11426Z" fill="#0B1014"/>
<path d="M95.6758 8.70459L95.3025 9.92894L106.628 13.3821L107.001 12.1577L95.6758 8.70459Z" fill="#0B1014"/>
<path d="M131.099 23.9626L132.193 24.8984C132.586 24.4062 132.843 23.917 132.964 23.431C133.1 22.9437 133.119 22.4618 133.021 21.9853C132.931 21.5157 132.741 21.0652 132.45 20.6341C132.159 20.2029 131.791 19.7967 131.345 19.4154C130.948 19.0757 130.513 18.7957 130.042 18.5753C129.586 18.3537 129.118 18.2201 128.638 18.1744C128.173 18.1276 127.712 18.19 127.257 18.3618C126.808 18.5255 126.396 18.8262 126.022 19.264C125.683 19.6613 125.475 20.0595 125.401 20.4588C125.341 20.8569 125.368 21.2519 125.482 21.644C125.611 22.0349 125.796 22.4251 126.039 22.8147C126.288 23.1962 126.548 23.5731 126.819 23.9453C127.106 24.3163 127.384 24.6804 127.654 25.0376C127.924 25.3948 128.136 25.7451 128.292 26.0885C128.462 26.4307 128.545 26.7609 128.54 27.0791C128.542 27.4042 128.415 27.7168 128.159 28.0167C127.889 28.3329 127.602 28.5369 127.299 28.6287C126.996 28.7204 126.687 28.737 126.372 28.6784C126.064 28.6117 125.756 28.4883 125.447 28.3081C125.146 28.135 124.865 27.9375 124.606 27.7157C124.282 27.4384 124 27.1275 123.761 26.783C123.523 26.4386 123.359 26.0807 123.269 25.7094C123.188 25.3451 123.185 24.9708 123.261 24.5866C123.352 24.2012 123.553 23.8261 123.865 23.4613L122.77 22.5255C122.32 23.0524 122.022 23.5902 121.875 24.1388C121.744 24.6862 121.733 25.2242 121.843 25.7528C121.967 26.2802 122.192 26.7884 122.518 27.2774C122.852 27.7734 123.262 28.2293 123.748 28.6452C124.145 28.9848 124.584 29.2759 125.065 29.5182C125.546 29.7756 126.036 29.9416 126.533 30.0162C127.038 30.0827 127.53 30.0404 128.01 29.8895C128.505 29.7373 128.95 29.4301 129.345 28.968C129.713 28.5383 129.937 28.1123 130.017 27.6899C130.106 27.2744 130.096 26.8591 129.988 26.4439C129.888 26.0356 129.717 25.6367 129.474 25.2471C129.239 24.8494 128.982 24.4609 128.702 24.0818C128.431 23.7096 128.157 23.349 127.88 22.9999C127.61 22.6427 127.386 22.2971 127.209 21.9629C127.04 21.6357 126.943 21.3217 126.92 21.0209C126.911 20.719 127.021 20.4342 127.25 20.1667C127.493 19.8829 127.747 19.6929 128.011 19.5965C128.291 19.499 128.569 19.4697 128.844 19.5087C129.128 19.5547 129.408 19.6538 129.685 19.8062C129.961 19.9586 130.221 20.1387 130.464 20.3467C131.064 20.8596 131.434 21.4209 131.572 22.0304C131.726 22.6388 131.568 23.2829 131.099 23.9626Z" fill="#0B1014"/>
<path d="M143.329 38.3707L144.219 39.6032C144.662 39.1782 144.988 38.719 145.198 38.2257C145.416 37.7261 145.529 37.2172 145.536 36.6988C145.544 36.1805 145.456 35.6583 145.274 35.1322C145.091 34.6061 144.825 34.1009 144.476 33.6165C143.964 32.9073 143.378 32.3695 142.719 32.0033C142.075 31.6394 141.398 31.4308 140.689 31.3772C139.985 31.3323 139.267 31.4301 138.533 31.6706C137.807 31.9048 137.107 32.2654 136.432 32.7524C135.758 33.2393 135.189 33.7815 134.726 34.379C134.269 34.9851 133.952 35.6216 133.775 36.2883C133.599 36.9551 133.579 37.6471 133.715 38.3644C133.86 39.0754 134.191 39.7898 134.709 40.5077C135.565 41.6926 136.563 42.3926 137.705 42.6077C138.847 42.8228 140.045 42.5695 141.3 41.8478L140.411 40.6153C140.012 40.864 139.601 41.0421 139.178 41.1496C138.756 41.2571 138.34 41.2815 137.929 41.2228C137.533 41.1664 137.15 41.0282 136.781 40.8081C136.427 40.5904 136.103 40.2782 135.809 39.8717C135.41 39.3182 135.17 38.7676 135.091 38.2199C135.011 37.6722 135.051 37.1438 135.209 36.6346C135.383 36.1278 135.659 35.6454 136.039 35.1872C136.427 34.7227 136.885 34.3001 137.413 33.9193C137.897 33.5697 138.408 33.2931 138.945 33.0896C139.482 32.8861 140.014 32.7849 140.541 32.786C141.083 32.7895 141.598 32.9109 142.087 33.1503C142.582 33.3983 143.029 33.7991 143.428 34.3527C143.897 35.0013 144.135 35.6778 144.143 36.3821C144.158 37.095 143.887 37.7579 143.329 38.3707Z" fill="#0B1014"/>
<path d="M151.695 46.1792L141.116 50.4907L141.69 51.8983L146.209 50.0565L147.61 53.494C147.751 53.8398 147.809 54.1385 147.785 54.3902C147.771 54.6379 147.701 54.8622 147.575 55.063C147.46 55.2599 147.296 55.4363 147.083 55.5921C146.88 55.744 146.658 55.892 146.417 56.0362C146.18 56.1902 145.931 56.3266 145.668 56.4451C145.405 56.5637 145.157 56.6762 144.924 56.7827C144.701 56.8852 144.502 56.9895 144.326 57.0956C144.155 57.2116 144.035 57.3411 143.966 57.4842L144.606 59.0548C144.724 58.8341 144.88 58.638 145.075 58.4664C145.284 58.3007 145.509 58.1457 145.749 58.0015C145.99 57.8573 146.242 57.726 146.505 57.6074C146.767 57.4888 147.023 57.3673 147.272 57.2429C147.516 57.1086 147.745 56.9635 147.958 56.8076C148.175 56.6616 148.353 56.4911 148.493 56.2961C148.646 56.1069 148.751 55.8854 148.809 55.6314C148.871 55.3874 148.869 55.1002 148.804 54.7698L148.833 54.7578C149.273 55.3274 149.793 55.6568 150.394 55.746C150.998 55.845 151.622 55.7637 152.264 55.5021C153.123 55.1518 153.683 54.5896 153.944 53.8154C154.208 53.0511 154.135 52.1652 153.724 51.1576L151.695 46.1792ZM148.59 52.5072L147.394 49.5735L151.084 48.0699L152.509 51.5666C152.778 52.2284 152.806 52.776 152.591 53.2092C152.376 53.6424 152.001 53.9677 151.468 54.1851C151.083 54.3421 150.738 54.4017 150.435 54.3641C150.146 54.3323 149.881 54.233 149.64 54.0662C149.413 53.9052 149.215 53.6866 149.044 53.4104C148.874 53.1342 148.723 52.8331 148.59 52.5072Z" fill="#0B1014"/>
<path d="M152.077 65.2607C152.648 65.1795 153.218 65.1736 153.788 65.2432C154.369 65.3113 154.904 65.4721 155.392 65.7257C155.881 65.9793 156.293 66.3354 156.627 66.7941C156.973 67.2513 157.194 67.8231 157.292 68.5095C157.39 69.1959 157.337 69.8068 157.133 70.3423C156.94 70.8762 156.644 71.3332 156.246 71.7132C155.847 72.0932 155.379 72.397 154.84 72.6246C154.312 72.8507 153.763 73.0044 153.193 73.0857C152.622 73.1669 152.047 73.1735 151.466 73.1055C150.896 73.0359 150.367 72.8743 149.878 72.6207C149.389 72.3671 148.972 72.0118 148.627 71.5546C148.292 71.0959 148.076 70.5233 147.978 69.8369C147.88 69.1505 147.928 68.5404 148.121 68.0064C148.325 67.471 148.626 67.0132 149.025 66.6332C149.423 66.2532 149.886 65.9502 150.414 65.7241C150.953 65.4965 151.507 65.342 152.077 65.2607ZM151.863 63.756C151.092 63.8658 150.363 64.0828 149.677 64.4069C149.003 64.7401 148.423 65.1728 147.939 65.7052C147.454 66.2375 147.097 66.8649 146.866 67.5874C146.645 68.3084 146.599 69.1177 146.727 70.0153C146.855 70.9129 147.125 71.677 147.538 72.3077C147.962 72.9369 148.481 73.4394 149.095 73.8152C149.708 74.191 150.385 74.4394 151.124 74.5603C151.875 74.6903 152.636 74.7003 153.407 74.5905C154.178 74.4806 154.901 74.2591 155.575 73.9259C156.262 73.6018 156.847 73.1736 157.331 72.6413C157.816 72.1089 158.174 71.4815 158.405 70.759C158.636 70.0365 158.687 69.2265 158.559 68.3289C158.431 67.4313 158.155 66.6679 157.732 66.0387C157.308 65.4095 156.789 64.907 156.176 64.5312C155.562 64.1554 154.879 63.9025 154.128 63.7725C153.389 63.6516 152.634 63.6461 151.863 63.756Z" fill="#0B1014"/>
<path d="M159.115 83.7437L147.737 82.7235L147.061 90.2613L148.336 90.3756L148.876 84.3518L158.98 85.2576L159.115 83.7437Z" fill="#0B1014"/>
<path d="M156.742 99.5181L145.8 96.2346L143.625 103.483L144.851 103.851L146.589 98.0584L156.305 100.974L156.742 99.5181Z" fill="#0B1014"/>
<path d="M136.533 119.569L143.537 125.001L141.969 127.024C141.537 127.58 141.094 127.986 140.64 128.241C140.194 128.503 139.728 128.634 139.241 128.635C138.757 128.65 138.26 128.542 137.752 128.31C137.246 128.092 136.723 127.775 136.183 127.356C135.627 126.925 135.196 126.496 134.892 126.071C134.589 125.661 134.376 125.266 134.252 124.886C134.128 124.507 134.078 124.144 134.103 123.799C134.121 123.462 134.176 123.147 134.269 122.854C134.369 122.568 134.485 122.314 134.617 122.092C134.757 121.876 134.879 121.701 134.984 121.566L136.533 119.569ZM145.48 124.584L136.453 117.583L134.051 120.681C133.469 121.431 133.071 122.162 132.857 122.873C132.643 123.584 132.596 124.271 132.718 124.932C132.848 125.6 133.138 126.243 133.589 126.863C134.049 127.489 134.658 128.096 135.416 128.685C136.866 129.809 138.236 130.271 139.525 130.07C140.815 129.869 141.999 129.073 143.078 127.682L145.48 124.584Z" fill="#0B1014"/>
<path d="M128.449 135.212C128.801 135.668 129.088 136.161 129.309 136.691C129.537 137.229 129.661 137.774 129.683 138.324C129.704 138.874 129.597 139.408 129.364 139.926C129.137 140.452 128.75 140.927 128.201 141.351C127.653 141.775 127.096 142.031 126.529 142.119C125.97 142.215 125.426 142.183 124.899 142.025C124.372 141.866 123.876 141.609 123.412 141.253C122.955 140.906 122.55 140.505 122.197 140.049C121.845 139.594 121.555 139.096 121.327 138.558C121.105 138.028 120.984 137.488 120.963 136.938C120.942 136.388 121.045 135.849 121.272 135.323C121.505 134.806 121.896 134.335 122.444 133.91C122.993 133.486 123.547 133.226 124.106 133.13C124.673 133.043 125.219 133.078 125.747 133.237C126.274 133.395 126.766 133.648 127.224 133.995C127.688 134.351 128.096 134.757 128.449 135.212ZM129.651 134.282C129.174 133.666 128.625 133.14 128.004 132.704C127.382 132.282 126.719 131.992 126.017 131.834C125.315 131.676 124.592 131.675 123.85 131.831C123.114 131.996 122.388 132.356 121.671 132.911C120.954 133.465 120.423 134.078 120.079 134.749C119.741 135.428 119.561 136.128 119.538 136.847C119.514 137.566 119.633 138.277 119.893 138.98C120.151 139.697 120.518 140.363 120.995 140.979C121.471 141.595 122.021 142.114 122.644 142.535C123.265 142.972 123.927 143.269 124.629 143.427C125.331 143.585 126.053 143.586 126.796 143.43C127.538 143.274 128.268 142.918 128.985 142.364C129.702 141.809 130.229 141.192 130.567 140.512C130.904 139.833 131.085 139.134 131.108 138.415C131.131 137.695 131.014 136.977 130.756 136.26C130.496 135.557 130.127 134.898 129.651 134.282Z" fill="#0B1014"/>
<path d="M101.703 144.096L103.151 155.833L104.561 155.263L103.149 145.582L103.179 145.57L109.085 153.434L110.613 152.816L109.424 143.045L109.453 143.033L115.092 151.005L116.531 150.423L109.535 140.93L108.066 141.523L109.217 151.413L109.187 151.425L103.171 143.502L101.703 144.096Z" fill="#0B1014"/>
<path d="M94.1133 157.823L92.7783 146.478L91.3482 146.646L92.4195 155.751L92.3877 155.755L85.3893 147.347L83.7367 147.541L85.0717 158.887L86.5018 158.719L85.4193 149.518L85.451 149.515L92.5084 158.012L94.1133 157.823Z" fill="#0B1014"/>
</svg>
