<svg width="191" height="173" viewBox="0 0 191 173" fill="none" xmlns="http://www.w3.org/2000/svg">
<path fill-rule="evenodd" clip-rule="evenodd" d="M137.675 164.192C136.848 164.138 136.222 163.423 136.277 162.597C136.521 158.902 136.828 155.244 137.133 151.617C138.667 133.366 140.133 115.907 133.155 98.4689C127.59 84.5608 116.172 69.8214 101.304 66.2474C100.125 72.4654 96.8479 77.9984 91.7933 82.8927C89.4063 85.204 85.9674 88.1194 82.1536 89.9877C78.3533 91.8495 73.8987 92.7992 69.7456 90.6576C66.1608 88.8091 65.7653 84.9858 66.3082 81.8103C66.8607 78.5789 68.4551 75.3106 69.8225 73.4534C76.2036 64.7869 88.4066 61.3851 98.7333 62.7292C98.8976 60.302 98.7221 57.7662 98.1914 55.1135C95.8179 43.2504 89.3014 33.6554 80.9415 25.3319C72.9313 17.3567 63.3127 10.627 54.1379 4.20777C53.7153 3.91209 53.2936 3.61706 52.8731 3.3226C52.1945 2.84744 52.0296 1.91212 52.5047 1.23351C52.9799 0.554904 53.9152 0.38998 54.5938 0.865148C55.035 1.17409 55.4782 1.48409 55.9229 1.79524C65.0447 8.17656 74.8582 15.0417 83.0581 23.206C91.6772 31.7874 98.605 41.8891 101.133 54.5249C101.742 57.5682 101.923 60.4785 101.703 63.2595C101.802 63.2823 101.901 63.3055 102 63.3291C118.257 67.2344 130.224 83.0668 135.941 97.3544C143.206 115.511 141.659 133.794 140.113 152.055C139.81 155.636 139.507 159.216 139.27 162.794C139.216 163.621 138.501 164.247 137.675 164.192ZM98.3529 65.7031C88.8444 64.4543 77.8132 67.6605 72.2383 75.2321C71.118 76.7537 69.7309 79.5927 69.2653 82.3159C68.7902 85.0949 69.3398 87.073 71.1205 87.9912C74.0558 89.5048 77.4184 88.9668 80.8338 87.2937C84.2357 85.6271 87.411 82.9602 89.7064 80.7375C94.3424 76.2485 97.294 71.2744 98.3529 65.7031Z" fill="#28C4A4"/>
<path fill-rule="evenodd" clip-rule="evenodd" d="M138.562 165.278C138.753 164.938 138.94 164.605 139.049 164.444C139.959 163.094 140.904 161.755 141.838 160.433C142.227 159.881 142.614 159.333 142.996 158.788C143.471 158.109 144.406 157.944 145.085 158.419C145.763 158.894 145.928 159.83 145.453 160.508C145.057 161.074 144.662 161.634 144.268 162.192C143.343 163.503 142.428 164.799 141.537 166.121C141.537 166.12 141.537 166.12 141.536 166.122C141.533 166.127 141.52 166.147 141.494 166.191C141.464 166.242 141.426 166.308 141.379 166.39C141.326 166.483 141.269 166.584 141.206 166.696C141.153 166.791 141.095 166.894 141.03 167.008C140.758 167.488 140.411 168.092 140.046 168.668C139.693 169.227 139.276 169.835 138.861 170.283C138.664 170.495 138.378 170.772 138.02 170.96C137.659 171.15 136.877 171.408 136.119 170.877C135.22 170.247 134.577 169.405 134.09 168.602C133.667 167.907 133.315 167.16 133.021 166.534C132.979 166.445 132.938 166.359 132.898 166.275C132.527 165.492 132.074 164.761 131.567 163.992C131.437 163.794 131.3 163.59 131.16 163.381C130.774 162.804 130.363 162.189 129.985 161.562C129.558 160.852 129.787 159.93 130.497 159.503C131.207 159.076 132.128 159.305 132.556 160.015C132.894 160.576 133.244 161.1 133.616 161.656C133.765 161.878 133.916 162.105 134.072 162.341C134.601 163.144 135.146 164.014 135.609 164.989C135.653 165.082 135.696 165.173 135.739 165.264C136.04 165.903 136.32 166.495 136.653 167.044C136.799 167.284 136.945 167.499 137.095 167.69C137.224 167.507 137.364 167.297 137.511 167.064C137.835 166.552 138.153 166.001 138.42 165.529C138.467 165.447 138.514 165.362 138.562 165.278Z" fill="#28C4A4"/>
</svg>
