<svg width="1250" height="600" viewBox="0 0 1250 600" fill="none" xmlns="http://www.w3.org/2000/svg">
<path d="M278.59 290H1250V300H278.59V290Z" fill="#28C4A4"/>
<path d="M0 290H180.523V300H0V290Z" fill="#28C4A4"/>
<path fill-rule="evenodd" clip-rule="evenodd" d="M530.892 163L625 0L719.108 163H707.561L625 20L542.439 163H530.892ZM372.698 437L278.59 600H971.41L877.302 437H865.755L954.09 590H295.91L384.245 437H372.698Z" fill="#28C4A4"/>
<path d="M830.991 405.974C829.451 405.764 828.226 404.539 828.016 402.999V385.884H823.641V402.579C823.641 403.804 823.921 404.959 824.446 406.009C825.181 407.549 826.441 408.809 827.981 409.579C829.031 410.104 830.186 410.384 831.411 410.384H843.836V406.009L830.991 405.974Z" fill="#28C4A4"/>
<path d="M856.702 385.849C849.947 385.849 844.452 391.344 844.452 398.099C844.452 404.854 849.947 410.349 856.702 410.349C863.457 410.349 868.952 404.854 868.952 398.099C868.952 391.344 863.457 385.849 856.702 385.849ZM856.702 405.974C852.362 405.974 848.827 402.439 848.827 398.099C848.827 393.759 852.362 390.224 856.702 390.224C861.042 390.224 864.577 393.759 864.577 398.099C864.577 402.439 861.042 405.974 856.702 405.974Z" fill="#28C4A4"/>
<path d="M884.177 390.224H896.427V385.849H884.177C877.422 385.849 871.927 391.344 871.927 398.099C871.927 404.854 877.422 410.349 884.177 410.349H896.427V405.974H884.177C879.837 405.974 876.302 402.439 876.302 398.099C876.302 393.759 879.837 390.224 884.177 390.224Z" fill="#28C4A4"/>
<path d="M922.013 405.974L911.758 385.849L901.503 405.974L899.263 410.349H904.163L906.403 405.974L911.758 395.474L917.113 405.974L919.353 410.349H924.253L922.013 405.974Z" fill="#28C4A4"/>
<path d="M920.127 385.884V390.259H930.172V410.384H934.547V390.259H944.592V385.884H920.127Z" fill="#28C4A4"/>
<path d="M953.195 410.349V385.849H948.82V410.349H953.195Z" fill="#28C4A4"/>
<path d="M968.757 385.849C962.002 385.849 956.507 391.344 956.507 398.099C956.507 404.854 962.002 410.349 968.757 410.349C975.512 410.349 981.007 404.854 981.007 398.099C981.007 391.344 975.512 385.849 968.757 385.849ZM968.757 405.974C964.417 405.974 960.882 402.439 960.882 398.099C960.882 393.759 964.417 390.224 968.757 390.224C973.097 390.224 976.632 393.759 976.632 398.099C976.632 402.439 973.097 405.974 968.757 405.974Z" fill="#28C4A4"/>
<path d="M1004.46 385.849V401.459L988.707 389.314L984.332 385.954V410.384H988.707V394.879L1004.46 407.024L1008.83 410.384V385.884L1004.46 385.849Z" fill="#28C4A4"/>
<path d="M1052.17 405.974L1041.91 385.849L1031.66 405.974L1029.42 410.349H1034.32L1036.56 405.974L1041.91 395.474L1047.27 405.974L1049.51 410.349H1054.41L1052.17 405.974Z" fill="#28C4A4"/>
<path d="M1066.02 390.224H1078.27V385.849H1066.02C1059.26 385.849 1053.77 391.344 1053.77 398.099C1053.77 404.854 1059.26 410.349 1066.02 410.349H1078.27V396.909H1066.02V401.284H1073.89V405.974H1066.02C1061.68 405.974 1058.14 402.439 1058.14 398.099C1058.14 393.759 1061.68 390.224 1066.02 390.224Z" fill="#28C4A4"/>
<path d="M1089.07 390.224H1106.96V385.849H1089.07C1085.43 385.849 1082.49 388.824 1082.49 392.464V403.734C1082.49 407.374 1085.43 410.349 1089.07 410.349H1106.96V405.974H1089.07C1087.85 405.974 1086.83 404.959 1086.83 403.734V399.114H1102.58V394.739H1086.83V392.464C1086.83 391.239 1087.85 390.224 1089.07 390.224Z" fill="#28C4A4"/>
<path d="M1131.28 385.849V401.459L1115.53 389.314L1111.15 385.954V410.384H1115.53V394.879L1131.28 407.024L1135.65 410.384V385.884L1131.28 385.849Z" fill="#28C4A4"/>
<path d="M1151.75 390.224H1164V385.849H1151.75C1144.99 385.849 1139.5 391.344 1139.5 398.099C1139.5 404.854 1144.99 410.349 1151.75 410.349H1164V405.974H1151.75C1147.41 405.974 1143.87 402.439 1143.87 398.099C1143.87 393.759 1147.41 390.224 1151.75 390.224Z" fill="#28C4A4"/>
<path d="M1185.8 385.814L1179.08 394.529L1172.36 385.814H1166.83L1176.32 398.099L1176.91 398.834V410.314H1181.29V398.764L1181.81 398.099L1191.3 385.814H1185.8ZM1166.8 410.419L1166.87 410.349H1166.8V410.419ZM1191.3 410.419V410.349H1191.26L1191.3 410.419Z" fill="#28C4A4"/>
<path d="M171.305 247.5H151.833L132.96 310.71L117.083 288.691L114.087 284.497L105.549 272.814L97.0112 284.497L94.0155 288.691L78.1382 310.71L59.2652 247.5H39.793L64.2081 329.733L70.9485 352.2L84.7288 333.178L105.399 304.568L126.22 333.178L140 352.35L171.305 247.5Z" fill="white"/>
<path d="M383.117 247.5V314.305L315.713 262.329L296.99 247.949V352.5H315.713V286.145L383.117 338.121L401.84 352.5V247.65L383.117 247.5Z" fill="white"/>
<path d="M419.785 247.5V352.35H472.21C486.59 352.35 499.621 346.509 509.058 336.922C510.106 335.874 511.155 334.825 512.053 333.777C519.842 324.64 524.485 312.807 524.485 299.925C524.485 271.016 500.969 247.65 472.06 247.65L419.785 247.5ZM438.359 266.373H472.06C490.634 266.373 505.762 281.501 505.762 300.075C505.762 318.648 490.634 333.777 472.06 333.777H438.359V266.373Z" fill="white"/>
<path d="M568.89 266.223H645.431V247.5H568.89C553.312 247.5 540.73 260.232 540.73 275.81V324.041C540.73 339.618 553.312 352.35 568.89 352.35H645.431V333.627H568.89C563.647 333.627 559.304 329.283 559.304 324.041V304.269H626.707V285.546H559.304V275.81C559.304 270.567 563.647 266.223 568.89 266.223Z" fill="white"/>
<path d="M807.24 333.627C800.65 332.728 795.407 327.486 794.509 320.895V247.65H775.785V319.098C775.785 324.34 776.984 329.283 779.23 333.777C782.376 340.367 787.768 345.76 794.359 349.055C798.852 351.302 803.795 352.5 809.038 352.5H862.212V333.777L807.24 333.627Z" fill="white"/>
<path d="M954.721 247.5V299.925C954.721 318.499 939.593 333.627 921.019 333.627C902.446 333.627 887.318 318.499 887.318 299.925V247.5H868.594V299.925C868.594 328.834 892.111 352.35 921.019 352.35C949.928 352.35 973.444 328.834 973.444 299.925V247.5H954.721Z" fill="white"/>
<path d="M1090.55 276.409V275.81C1090.55 260.232 1077.82 247.5 1062.24 247.5H1019.7C1004.12 247.5 991.539 260.232 991.539 275.81V276.409C991.539 282.4 993.337 287.942 996.482 292.436C997.531 294.083 998.729 295.581 1000.08 296.929C1005.17 301.872 1012.06 304.868 1019.7 304.868H1057.45C1065.38 304.868 1071.97 311.309 1071.97 319.247C1071.97 327.186 1065.38 333.627 1057.45 333.627H1024.64C1016.7 333.627 1010.26 327.186 1010.26 319.247H991.539C991.539 337.521 1006.37 352.35 1024.64 352.35H1057.45C1075.72 352.35 1090.55 337.521 1090.55 319.247C1090.55 311.309 1087.7 303.969 1083.06 298.277C1082.61 297.828 1082.31 297.379 1081.86 296.929C1075.87 290.339 1067.18 286.145 1057.45 286.145H1019.7C1014.46 286.145 1010.11 281.801 1010.11 276.558V275.959C1010.11 270.717 1014.46 266.373 1019.7 266.373H1062.24C1067.48 266.373 1071.82 270.717 1071.82 275.959V276.558L1090.55 276.409Z" fill="white"/>
<path d="M1103.51 247.65V266.373H1146.5V352.5H1165.22V266.373H1208.21V247.65H1103.51Z" fill="white"/>
<path fill-rule="evenodd" clip-rule="evenodd" d="M233.435 254.679H226.22V253.879H233.435V254.679ZM233.435 257.084H209.476V256.284H233.435V257.084ZM233.435 259.489H208.182V258.689H233.435V259.489ZM233.435 261.894H210.587V261.094H233.435V261.894ZM232.232 264.299H215.397V263.499H232.232V264.299ZM232.232 266.704H216.599V265.904H232.232V266.704ZM259.891 266.704H251.473V265.904H259.891V266.704ZM200.966 267.907H194.353V267.107H200.966V267.907ZM228.625 269.11H217.802V268.31H228.625V269.11ZM262.296 269.11H246.663V268.31H262.296V269.11ZM202.169 270.312H191.346V269.512H202.169V270.312ZM226.22 271.515H217.802V270.715H226.22V271.515ZM263.498 271.515H244.258V270.715H263.498V271.515ZM202.169 272.717H190.144V271.917H202.169V272.717ZM223.815 273.92H219.004V273.12H223.815V273.92ZM265.903 273.92H241.853V273.12H265.903V273.92ZM200.966 275.122H187.739V274.322H200.966V275.122ZM268.308 276.325H240.65V275.525H268.308V276.325ZM199.764 277.527H186.536V276.727H199.764V277.527ZM269.511 278.73H239.447V277.93H269.511V278.73ZM198.561 279.932H185.334V279.132H198.561V279.932ZM270.713 281.135H238.245V280.335H270.713V281.135ZM198.561 281.537V282.337H184.131V281.537H198.561ZM210.587 282.337H203.372V281.537H210.587V282.337ZM271.916 283.54H237.042V282.74H271.916V283.54ZM212.992 284.742H183.12V283.942H212.992V284.742ZM271.916 285.945H235.84V285.145H271.916V285.945ZM214.194 287.147H182.506V286.348H214.194V287.147ZM273.118 288.35H235.84V287.55H273.118V288.35ZM211.789 289.553H181.726V288.753H211.789V289.553ZM247.865 289.955V290.755H235.84V289.955H247.865ZM274.321 290.755H262.296V289.955H274.321V290.755ZM210.587 291.958H181.209V291.158H210.587V291.958ZM244.258 293.16H235.84V292.36H244.258V293.16ZM274.321 292.36V293.16H257.485V292.36H274.321ZM208.184 294.363L180.978 294.489L180.974 293.689L208.18 293.563L208.184 294.363ZM275.523 294.765V295.565H256.283V294.765H275.523ZM208.182 295.968V296.768H180.523V295.968H208.182ZM275.523 297.17V297.97H256.283V297.17H275.523ZM202.169 299.173H181.726V298.373H202.169V299.173ZM246.663 299.173H238.245V298.373H246.663V299.173ZM265.903 300.375H257.485V299.575H265.903V300.375ZM275.523 300.375H269.511V299.575H275.523V300.375ZM193.751 300.778V301.578H181.726V300.778H193.751ZM249.068 300.778V301.578H234.637V300.778H249.068ZM267.106 302.78H258.688V301.98H267.106V302.78ZM275.523 302.78H269.511V301.98H275.523V302.78ZM192.549 303.983H184.131V303.183H192.549V303.983ZM250.27 303.983H232.232V303.183H250.27V303.983ZM268.308 305.185H259.891V304.385H268.308V305.185ZM275.523 304.385V305.185H270.713V304.385H275.523ZM191.346 306.388H185.334V305.588H191.346V306.388ZM251.473 306.388H231.03V305.588H251.473V306.388ZM263.498 307.679V306.879H268.308V307.679H263.498ZM276.726 307.679H271.916V306.879H276.726V307.679ZM193.751 308.793H187.739V307.993H193.751V308.793ZM252.675 308.793H229.827V307.993H252.675V308.793ZM269.511 309.679H266.188V308.879H269.511V309.679ZM196.156 311.198H190.144V310.398H196.156V311.198ZM253.878 310.398V311.198H229.827V310.398H253.878ZM200.966 313.603H194.954V312.803H200.966V313.603ZM256.283 313.603H229.827V312.803H256.283V313.603ZM208.182 316.008H197.359V315.208H208.182V316.008ZM259.891 316.008H232.232V315.208H259.891V316.008ZM214.194 318.413H197.359V317.613H214.194V318.413ZM259.891 317.613V318.413H235.84V317.613H259.891ZM217.802 320.818H197.359V320.018H217.802V320.818ZM258.688 320.818H240.65V320.018H258.688V320.818ZM219.004 323.223H196.156V322.423H219.004V323.223ZM258.688 323.223H243.055V322.423H258.688V323.223ZM219.004 325.629H194.954V324.828H219.004V325.629ZM257.485 325.629H244.258V324.828H257.485V325.629ZM217.802 328.034H196.156V327.234H217.802V328.034ZM257.485 328.034H244.258V327.234H257.485V328.034ZM217.802 330.439H200.966V329.639H217.802V330.439ZM256.283 329.639V330.439H244.258V329.639H256.283ZM216.599 332.844H202.169V332.044H216.599V332.844ZM255.08 332.844H243.055V332.044H255.08V332.844ZM215.397 335.249H203.372V334.449H215.397V335.249ZM255.08 335.249H243.055V334.449H255.08V335.249ZM214.194 336.854V337.654H202.169V336.854H214.194ZM252.675 336.854V337.654H243.055V336.854H252.675ZM212.992 340.059H202.169V339.259H212.992V340.059ZM251.473 340.059H245.46V339.259H251.473V340.059ZM211.788 342.464L204.046 342.441L204.048 341.641L211.79 341.664L211.788 342.464Z" fill="#28C4A4"/>
<path fill-rule="evenodd" clip-rule="evenodd" d="M228.023 252.279C202.471 252.279 181.523 273.514 181.523 300C181.523 326.486 202.471 347.721 228.023 347.721C253.575 347.721 274.523 326.486 274.523 300C274.523 273.514 253.575 252.279 228.023 252.279ZM169.523 300C169.523 267.148 195.585 240.279 228.023 240.279C260.461 240.279 286.523 267.148 286.523 300C286.523 332.852 260.461 359.721 228.023 359.721C195.585 359.721 169.523 332.852 169.523 300Z" fill="white"/>
<path d="M753.046 348.588L730.15 314.118L726.982 309.473L726.262 308.373C747.142 304.462 757.942 291.382 757.942 278.548C757.942 270.114 753.334 262.046 745.414 256.423C737.35 250.556 725.974 247.5 712.871 247.5L669.415 247.5C667.831 247.5 667.943 248.6 667.943 249.822V259.479L669.383 261.679V261.802L688.432 290.011H669.373V350.055C669.373 351.4 670.669 352.5 672.253 352.5H685.696C687.136 352.5 688.432 351.4 688.432 350.055V309.473H701.207L704.231 314.118L728.854 351.033L729.142 351.4C729.574 352.011 730.438 352.5 731.446 352.5H750.742C752.326 352.5 753.478 351.4 753.478 349.933C753.478 349.566 753.478 349.2 753.19 348.833L753.046 348.588ZM711.287 285.882L698.471 266.569H712.871C728.422 266.569 735.334 272.803 735.334 278.548C735.334 283.437 730.15 288.815 718.486 290.16C717.19 290.282 715.751 290.405 714.311 290.405L711.287 285.882Z" fill="white"/>
</svg>
