<svg width="1170" height="120" viewBox="0 0 1170 120" fill="none" xmlns="http://www.w3.org/2000/svg">
<path d="M132.305 7.55237H112.833L93.9599 70.7621L78.0826 48.7435L75.0868 44.5495L66.549 32.8662L58.0112 44.5495L55.0155 48.7435L39.1382 70.7621L20.2652 7.55237H0.792969L25.2081 89.7849L31.9485 112.253L45.7288 93.23L66.3993 64.6208L87.2195 93.23L101 112.403L132.305 7.55237Z" fill="white"/>
<path d="M344.117 7.55237V74.3569L276.713 22.3812L257.99 8.00173V112.552H276.713V46.1972L344.117 98.1729L362.84 112.552V7.70215L344.117 7.55237Z" fill="white"/>
<path d="M380.785 7.55237V112.403H433.21C447.59 112.403 460.621 106.561 470.058 96.9746C471.106 95.9261 472.155 94.8776 473.053 93.8291C480.842 84.6922 485.486 72.8591 485.486 59.9775C485.486 31.0688 461.969 7.70215 433.06 7.70215L380.785 7.55237ZM399.359 26.4254H433.06C451.634 26.4254 466.762 41.5538 466.762 60.1273C466.762 78.7007 451.634 93.8291 433.06 93.8291H399.359V26.4254Z" fill="white"/>
<path d="M529.89 26.2756H606.431V7.55237H529.89C514.312 7.55237 501.73 20.2842 501.73 35.8619V84.093C501.73 99.6708 514.312 112.403 529.89 112.403H606.431V93.6793H529.89C524.647 93.6793 520.304 89.3355 520.304 84.093V64.3213H587.707V45.598H520.304V35.8619C520.304 30.6194 524.647 26.2756 529.89 26.2756Z" fill="white"/>
<path d="M768.24 93.6793C761.65 92.7806 756.407 87.5381 755.509 80.9475V7.70215H736.785V79.1501C736.785 84.3926 737.984 89.3355 740.23 93.8291C743.376 100.42 748.768 105.812 755.359 109.107C759.852 111.354 764.795 112.552 770.038 112.552H823.212V93.8291L768.24 93.6793Z" fill="white"/>
<path d="M915.721 7.55237V59.9775C915.721 78.5509 900.593 93.6793 882.019 93.6793C863.446 93.6793 848.318 78.5509 848.318 59.9775V7.55237H829.594V59.9775C829.594 88.8862 853.111 112.403 882.019 112.403C910.928 112.403 934.444 88.8862 934.444 59.9775V7.55237H915.721Z" fill="white"/>
<path d="M1051.55 36.4611V35.8619C1051.55 20.2842 1038.82 7.55237 1023.24 7.55237H980.699C965.121 7.55237 952.539 20.2842 952.539 35.8619V36.4611C952.539 42.4525 954.337 47.9946 957.482 52.4882C958.531 54.1358 959.729 55.6337 961.077 56.9818C966.17 61.9247 973.06 64.9204 980.699 64.9204H1018.45C1026.38 64.9204 1032.97 71.3612 1032.97 79.2999C1032.97 87.2385 1026.38 93.6793 1018.45 93.6793H985.642C977.703 93.6793 971.262 87.2385 971.262 79.2999H952.539C952.539 97.5738 967.368 112.403 985.642 112.403H1018.45C1036.72 112.403 1051.55 97.5738 1051.55 79.2999C1051.55 71.3612 1048.7 64.0217 1044.06 58.3298C1043.61 57.8805 1043.31 57.4311 1042.86 56.9818C1036.87 50.3912 1028.18 46.1972 1018.45 46.1972H980.699C975.456 46.1972 971.113 41.8534 971.113 36.6109V36.0117C971.113 30.7692 975.456 26.4254 980.699 26.4254H1023.24C1028.48 26.4254 1032.82 30.7692 1032.82 36.0117V36.6109L1051.55 36.4611Z" fill="white"/>
<path d="M1064.51 7.70215V26.4254H1107.5V112.552H1126.22V26.4254H1169.21V7.70215H1064.51Z" fill="white"/>
<path fill-rule="evenodd" clip-rule="evenodd" d="M194.435 14.7315H187.22V13.9315H194.435V14.7315ZM194.435 17.1366H170.476V16.3366H194.435V17.1366ZM194.435 19.5416H169.182V18.7416H194.435V19.5416ZM194.435 21.9467H171.587V21.1467H194.435V21.9467ZM193.232 24.3518H176.397V23.5518H193.232V24.3518ZM193.232 26.7568H177.599V25.9568H193.232V26.7568ZM220.891 26.7568H212.473V25.9568H220.891V26.7568ZM161.966 27.9594H155.353V27.1594H161.966V27.9594ZM189.625 29.1619H178.802V28.3619H189.625V29.1619ZM223.296 29.1619H207.663V28.3619H223.296V29.1619ZM163.169 30.3644H152.346V29.5644H163.169V30.3644ZM187.22 31.567H178.802V30.767H187.22V31.567ZM224.498 31.567H205.258V30.767H224.498V31.567ZM163.169 32.7695H151.144V31.9695H163.169V32.7695ZM184.815 33.972H180.004V33.172H184.815V33.972ZM226.903 33.972H202.853V33.172H226.903V33.972ZM161.966 35.1746H148.739V34.3746H161.966V35.1746ZM229.308 36.3771H201.65V35.5771H229.308V36.3771ZM160.764 37.5796H147.536V36.7796H160.764V37.5796ZM230.511 38.7822H200.447V37.9821H230.511V38.7822ZM159.561 39.9847H146.334V39.1847H159.561V39.9847ZM231.713 41.1872H199.245V40.3872H231.713V41.1872ZM159.561 41.5897V42.3897H145.131V41.5897H159.561ZM171.587 42.3897H164.372V41.5897H171.587V42.3897ZM232.916 43.5923H198.042V42.7923H232.916V43.5923ZM173.992 44.7948H144.12V43.9948H173.992V44.7948ZM232.916 45.9973H196.84V45.1973H232.916V45.9973ZM175.194 47.1999H143.506V46.3999H175.194V47.1999ZM234.118 48.4024H196.84V47.6024H234.118V48.4024ZM172.789 49.6049H142.726V48.8049H172.789V49.6049ZM208.865 50.0075V50.8075H196.84V50.0075H208.865ZM235.321 50.8075H223.296V50.0075H235.321V50.8075ZM171.587 52.01H142.209V51.21H171.587V52.01ZM205.258 53.2125H196.84V52.4125H205.258V53.2125ZM235.321 52.4125V53.2125H218.485V52.4125H235.321ZM169.184 54.4151L141.978 54.541L141.974 53.741L169.18 53.6151L169.184 54.4151ZM236.523 54.8176V55.6176H217.283V54.8176H236.523ZM169.182 56.0201V56.8201H141.523V56.0201H169.182ZM236.523 57.2227V58.0227H217.283V57.2227H236.523ZM163.169 59.2252H142.726V58.4252H163.169V59.2252ZM207.663 59.2252H199.245V58.4252H207.663V59.2252ZM226.903 60.4277H218.485V59.6277H226.903V60.4277ZM236.523 60.4277H230.511V59.6277H236.523V60.4277ZM154.751 60.8302V61.6303H142.726V60.8302H154.751ZM210.068 60.8302V61.6303H195.637V60.8302H210.068ZM228.106 62.8328H219.688V62.0328H228.106V62.8328ZM236.523 62.8328H230.511V62.0328H236.523V62.8328ZM153.549 64.0353H145.131V63.2353H153.549V64.0353ZM211.27 64.0353H193.232V63.2353H211.27V64.0353ZM229.308 65.2378H220.891V64.4378H229.308V65.2378ZM236.523 64.4378V65.2378H231.713V64.4378H236.523ZM152.346 66.4404H146.334V65.6404H152.346V66.4404ZM212.473 66.4404H192.03V65.6404H212.473V66.4404ZM224.498 67.7315V66.9315H229.308V67.7315H224.498ZM237.726 67.7315H232.916V66.9315H237.726V67.7315ZM154.751 68.8454H148.739V68.0454H154.751V68.8454ZM213.675 68.8454H190.827V68.0454H213.675V68.8454ZM230.511 69.7315H227.188V68.9315H230.511V69.7315ZM157.156 71.2505H151.144V70.4505H157.156V71.2505ZM214.878 70.4505V71.2505H190.827V70.4505H214.878ZM161.966 73.6556H155.954V72.8556H161.966V73.6556ZM217.283 73.6556H190.827V72.8556H217.283V73.6556ZM169.182 76.0606H158.359V75.2606H169.182V76.0606ZM220.891 76.0606H193.232V75.2606H220.891V76.0606ZM175.194 78.4657H158.359V77.6657H175.194V78.4657ZM220.891 77.6657V78.4657H196.84V77.6657H220.891ZM178.802 80.8708H158.359V80.0708H178.802V80.8708ZM219.688 80.8708H201.65V80.0708H219.688V80.8708ZM180.004 83.2758H157.156V82.4758H180.004V83.2758ZM219.688 83.2758H204.055V82.4758H219.688V83.2758ZM180.004 85.6809H155.954V84.8809H180.004V85.6809ZM218.485 85.6809H205.258V84.8809H218.485V85.6809ZM178.802 88.0859H157.156V87.2859H178.802V88.0859ZM218.485 88.0859H205.258V87.2859H218.485V88.0859ZM178.802 90.491H161.966V89.691H178.802V90.491ZM217.283 89.691V90.491H205.258V89.691H217.283ZM177.599 92.8961H163.169V92.0961H177.599V92.8961ZM216.08 92.8961H204.055V92.0961H216.08V92.8961ZM176.397 95.3011H164.372V94.5011H176.397V95.3011ZM216.08 95.3011H204.055V94.5011H216.08V95.3011ZM175.194 96.9062V97.7062H163.169V96.9062H175.194ZM213.675 96.9062V97.7062H204.055V96.9062H213.675ZM173.992 100.111H163.169V99.3113H173.992V100.111ZM212.473 100.111H206.46V99.3113H212.473V100.111ZM172.788 102.516L165.046 102.493L165.048 101.693L172.79 101.716L172.788 102.516Z" fill="#28C4A4"/>
<path fill-rule="evenodd" clip-rule="evenodd" d="M189.023 12.3314C163.471 12.3314 142.523 33.566 142.523 60.0524C142.523 86.5387 163.471 107.773 189.023 107.773C214.575 107.773 235.523 86.5387 235.523 60.0524C235.523 33.566 214.575 12.3314 189.023 12.3314ZM130.523 60.0524C130.523 27.2002 156.585 0.331421 189.023 0.331421C221.461 0.331421 247.523 27.2002 247.523 60.0524C247.523 92.9045 221.461 119.773 189.023 119.773C156.585 119.773 130.523 92.9045 130.523 60.0524Z" fill="white"/>
<path d="M714.045 108.641L691.15 74.1705L687.982 69.5256L687.262 68.4255C708.142 64.5139 718.941 51.4348 718.941 38.6001C718.941 30.1659 714.333 22.0984 706.414 16.4755C698.35 10.6082 686.974 7.55237 673.87 7.55237L630.414 7.55261C628.83 7.55261 628.943 8.65248 628.943 9.87484V19.5314L630.383 21.7316V21.8539L649.432 50.0638H630.373V110.108C630.373 111.452 631.669 112.552 633.253 112.552H646.696C648.136 112.552 649.432 111.452 649.432 110.108V69.5256H662.206L665.23 74.1705L689.854 111.086L690.142 111.452C690.574 112.063 691.438 112.552 692.446 112.552H711.742C713.326 112.552 714.477 111.452 714.477 109.985C714.477 109.619 714.477 109.252 714.19 108.885L714.045 108.641ZM672.286 45.9342L659.471 26.621H673.87C689.422 26.621 696.334 32.855 696.334 38.6001C696.334 43.4895 691.15 48.8678 679.486 50.2124C678.19 50.3347 676.75 50.4569 675.31 50.4569L672.286 45.9342Z" fill="white"/>
</svg>
