<svg width="4001" height="1921" viewBox="0 0 4001 1921" fill="none" xmlns="http://www.w3.org/2000/svg">
<path d="M892.351 928.006H4000.86V960.006H892.351V928.006Z" fill="white"/>
<path d="M0.863281 928.006H578.538V960.006H0.863281V928.006Z" fill="white"/>
<path fill-rule="evenodd" clip-rule="evenodd" d="M1699.72 521.606L2000.86 0.00585938L2302.01 521.606H2265.06L2000.86 64.0058L1736.67 521.606H1699.72ZM1193.5 1398.41L892.351 1920.01H3109.38L2808.23 1398.41H2771.28L3053.95 1888.01H947.776L1230.45 1398.41H1193.5Z" fill="white"/>
<path d="M2660.03 1299.12C2655.11 1298.45 2651.19 1294.53 2650.51 1289.6V1234.83H2636.51V1288.26C2636.51 1292.18 2637.41 1295.87 2639.09 1299.23C2641.44 1304.16 2645.47 1308.19 2650.4 1310.66C2653.76 1312.34 2657.46 1313.23 2661.38 1313.23H2701.14V1299.23L2660.03 1299.12Z" fill="white"/>
<path d="M2742.31 1234.72C2720.69 1234.72 2703.11 1252.31 2703.11 1273.92C2703.11 1295.54 2720.69 1313.12 2742.31 1313.12C2763.93 1313.12 2781.51 1295.54 2781.51 1273.92C2781.51 1252.31 2763.93 1234.72 2742.31 1234.72ZM2742.31 1299.12C2728.42 1299.12 2717.11 1287.81 2717.11 1273.92C2717.11 1260.03 2728.42 1248.72 2742.31 1248.72C2756.2 1248.72 2767.51 1260.03 2767.51 1273.92C2767.51 1287.81 2756.2 1299.12 2742.31 1299.12Z" fill="white"/>
<path d="M2830.23 1248.72H2869.43V1234.72H2830.23C2808.61 1234.72 2791.03 1252.31 2791.03 1273.92C2791.03 1295.54 2808.61 1313.12 2830.23 1313.12H2869.43V1299.12H2830.23C2816.34 1299.12 2805.03 1287.81 2805.03 1273.92C2805.03 1260.03 2816.34 1248.72 2830.23 1248.72Z" fill="white"/>
<path d="M2951.31 1299.12L2918.49 1234.72L2885.67 1299.12L2878.51 1313.12H2894.19L2901.35 1299.12L2918.49 1265.52L2935.63 1299.12L2942.79 1313.12H2958.47L2951.31 1299.12Z" fill="white"/>
<path d="M2945.27 1234.83V1248.83H2977.41V1313.23H2991.41V1248.83H3023.56V1234.83H2945.27Z" fill="white"/>
<path d="M3051.09 1313.12V1234.72H3037.09V1313.12H3051.09Z" fill="white"/>
<path d="M3100.88 1234.72C3079.27 1234.72 3061.68 1252.31 3061.68 1273.92C3061.68 1295.54 3079.27 1313.12 3100.88 1313.12C3122.5 1313.12 3140.08 1295.54 3140.08 1273.92C3140.08 1252.31 3122.5 1234.72 3100.88 1234.72ZM3100.88 1299.12C3087 1299.12 3075.68 1287.81 3075.68 1273.92C3075.68 1260.03 3087 1248.72 3100.88 1248.72C3114.77 1248.72 3126.08 1260.03 3126.08 1273.92C3126.08 1287.81 3114.77 1299.12 3100.88 1299.12Z" fill="white"/>
<path d="M3215.12 1234.72V1284.67L3164.72 1245.81L3150.72 1235.06V1313.23H3164.72V1263.62L3215.12 1302.48L3229.12 1313.23V1234.83L3215.12 1234.72Z" fill="white"/>
<path d="M3367.79 1299.12L3334.98 1234.72L3302.16 1299.12L3294.99 1313.12H3310.67L3317.84 1299.12L3334.98 1265.52L3352.11 1299.12L3359.28 1313.12H3374.96L3367.79 1299.12Z" fill="white"/>
<path d="M3412.11 1248.72H3451.31V1234.72H3412.11C3390.5 1234.72 3372.91 1252.31 3372.91 1273.92C3372.91 1295.54 3390.5 1313.12 3412.11 1313.12H3451.31V1270.11H3412.11V1284.11H3437.31V1299.12H3412.11C3398.23 1299.12 3386.91 1287.81 3386.91 1273.92C3386.91 1260.03 3398.23 1248.72 3412.11 1248.72Z" fill="white"/>
<path d="M3485.9 1248.72H3543.13V1234.72H3485.9C3474.25 1234.72 3464.84 1244.24 3464.84 1255.89V1291.95C3464.84 1303.6 3474.25 1313.12 3485.9 1313.12H3543.13V1299.12H3485.9C3481.98 1299.12 3478.73 1295.87 3478.73 1291.95V1277.17H3529.13V1263.17H3478.73V1255.89C3478.73 1251.97 3481.98 1248.72 3485.9 1248.72Z" fill="white"/>
<path d="M3620.95 1234.72V1284.67L3570.55 1245.81L3556.55 1235.06V1313.23H3570.55V1263.62L3620.95 1302.48L3634.95 1313.23V1234.83L3620.95 1234.72Z" fill="white"/>
<path d="M3686.45 1248.72H3725.65V1234.72H3686.45C3664.83 1234.72 3647.25 1252.31 3647.25 1273.92C3647.25 1295.54 3664.83 1313.12 3686.45 1313.12H3725.65V1299.12H3686.45C3672.56 1299.12 3661.25 1287.81 3661.25 1273.92C3661.25 1260.03 3672.56 1248.72 3686.45 1248.72Z" fill="white"/>
<path d="M3795.43 1234.61L3773.92 1262.5L3752.42 1234.61H3734.72L3765.08 1273.92L3766.98 1276.27V1313.01H3780.98V1276.05L3782.66 1273.92L3813.01 1234.61H3795.43ZM3734.61 1313.35L3734.84 1313.12H3734.61V1313.35ZM3813.01 1313.35V1313.12H3812.9L3813.01 1313.35Z" fill="white"/>
<path d="M549.04 792.006H486.729L426.335 994.277L375.527 923.818L365.941 910.397L338.62 873.01L311.299 910.397L301.713 923.818L250.906 994.277L190.512 792.006H128.201L206.329 1055.15L227.898 1127.05L271.995 1066.17L338.141 974.625L404.766 1066.17L448.863 1127.53L549.04 792.006Z" fill="white"/>
<path d="M1226.84 792.006V1005.78L1011.15 839.458L951.231 793.444V1128.01H1011.15V915.669L1226.84 1081.99L1286.75 1128.01V792.485L1226.84 792.006Z" fill="white"/>
<path d="M1344.18 792.006V1127.53H1511.94C1557.95 1127.53 1599.65 1108.83 1629.85 1078.16C1633.2 1074.8 1636.56 1071.45 1639.43 1068.09C1664.36 1038.85 1679.22 1000.99 1679.22 959.766C1679.22 867.258 1603.96 792.485 1511.46 792.485L1344.18 792.006ZM1403.61 852.4H1511.46C1570.89 852.4 1619.3 900.81 1619.3 960.246C1619.3 1019.68 1570.89 1068.09 1511.46 1068.09H1403.61V852.4Z" fill="white"/>
<path d="M1821.31 851.92H2066.24V792.006H1821.31C1771.46 792.006 1731.2 832.748 1731.2 882.596V1036.94C1731.2 1086.78 1771.46 1127.53 1821.31 1127.53H2066.24V1067.61H1821.31C1804.54 1067.61 1790.64 1053.71 1790.64 1036.94V973.666H2006.33V913.752H1790.64V882.596C1790.64 865.82 1804.54 851.92 1821.31 851.92Z" fill="white"/>
<path d="M2584.03 1067.61C2562.94 1064.74 2546.17 1047.96 2543.29 1026.87V792.485H2483.38V1021.12C2483.38 1037.89 2487.21 1053.71 2494.4 1068.09C2504.47 1089.18 2521.72 1106.44 2542.81 1116.98C2557.19 1124.17 2573.01 1128.01 2589.78 1128.01H2759.94V1068.09L2584.03 1067.61Z" fill="white"/>
<path d="M3055.97 792.006V959.766C3055.97 1019.2 3007.56 1067.61 2948.13 1067.61C2888.69 1067.61 2840.28 1019.2 2840.28 959.766V792.006H2780.36V959.766C2780.36 1052.27 2855.62 1127.53 2948.13 1127.53C3040.63 1127.53 3115.89 1052.27 3115.89 959.766V792.006H3055.97Z" fill="white"/>
<path d="M3490.62 884.514V882.596C3490.62 832.748 3449.87 792.006 3400.03 792.006H3263.9C3214.05 792.006 3173.79 832.748 3173.79 882.596V884.514C3173.79 903.686 3179.54 921.421 3189.61 935.8C3192.96 941.073 3196.8 945.866 3201.11 950.18C3217.41 965.997 3239.46 975.584 3263.9 975.584H3384.69C3410.09 975.584 3431.18 996.194 3431.18 1021.6C3431.18 1047 3410.09 1067.61 3384.69 1067.61H3279.72C3254.31 1067.61 3233.7 1047 3233.7 1021.6H3173.79C3173.79 1080.07 3221.24 1127.53 3279.72 1127.53H3384.69C3443.16 1127.53 3490.62 1080.07 3490.62 1021.6C3490.62 996.194 3481.51 972.708 3466.65 954.494C3465.21 953.056 3464.25 951.618 3462.82 950.18C3443.64 929.09 3415.84 915.669 3384.69 915.669H3263.9C3247.12 915.669 3233.22 901.769 3233.22 884.993V883.076C3233.22 866.3 3247.12 852.4 3263.9 852.4H3400.03C3416.8 852.4 3430.7 866.3 3430.7 883.076V884.993L3490.62 884.514Z" fill="white"/>
<path d="M3532.08 792.485V852.4H3669.65V1128.01H3729.56V852.4H3867.13V792.485H3532.08Z" fill="white"/>
<path fill-rule="evenodd" clip-rule="evenodd" d="M747.855 814.979H724.766V812.419H747.855V814.979ZM747.855 822.675H671.186V820.115H747.855V822.675ZM747.855 830.372H667.045V827.812H747.855V830.372ZM747.855 838.068H674.741V835.508H747.855V838.068ZM744.007 845.764H690.133V843.204H744.007V845.764ZM744.007 853.46H693.981V850.9H744.007V853.46ZM832.513 853.46H805.576V850.9H832.513V853.46ZM643.956 857.308H622.791V854.748H643.956V857.308ZM732.462 861.156H697.829V858.596H732.462V861.156ZM840.209 861.156H790.184V858.596H840.209V861.156ZM647.804 865.005H613.171V862.444H647.804V865.005ZM724.766 868.853H697.829V866.293H724.766V868.853ZM844.057 868.853H782.488V866.293H844.057V868.853ZM647.804 872.701H609.323V870.141H647.804V872.701ZM717.07 876.549H701.678V873.989H717.07V876.549ZM851.754 876.549H774.791V873.989H851.754V876.549ZM643.956 880.397H601.627V877.837H643.956V880.397ZM859.45 884.245H770.943V881.685H859.45V884.245ZM640.108 888.093H597.779V885.533H640.108V888.093ZM863.298 891.941H767.095V889.381H863.298V891.941ZM636.26 895.789H593.931V893.229H636.26V895.789ZM867.146 899.637H763.247V897.077H867.146V899.637ZM636.26 900.925V903.485H590.083V900.925H636.26ZM674.741 903.485H651.652V900.925H674.741V903.485ZM870.994 907.334H759.399V904.774H870.994V907.334ZM682.437 911.182H586.848V908.622H682.437V911.182ZM870.994 915.03H755.551V912.47H870.994V915.03ZM686.285 918.878H584.882V916.318H686.285V918.878ZM874.842 922.726H755.551V920.166H874.842V922.726ZM678.589 926.574H582.386V924.014H678.589V926.574ZM794.032 927.862V930.422H755.551V927.862H794.032ZM878.69 930.422H840.209V927.862H878.69V930.422ZM674.741 934.27H580.732V931.71H674.741V934.27ZM782.488 938.118H755.551V935.558H782.488V938.118ZM878.69 935.558V938.118H824.817V935.558H878.69ZM667.051 941.966L579.992 942.37L579.98 939.81L667.039 939.406L667.051 941.966ZM882.538 943.255V945.815H820.969V943.255H882.538ZM667.045 947.103V949.663H578.538V947.103H667.045ZM882.538 950.951V953.511H820.969V950.951H882.538ZM647.804 957.359H582.386V954.799H647.804V957.359ZM790.184 957.359H763.247V954.799H790.184V957.359ZM851.754 961.207H824.817V958.647H851.754V961.207ZM882.538 961.207H863.298V958.647H882.538V961.207ZM620.867 962.495V965.055H582.386V962.495H620.867ZM797.88 962.495V965.055H751.703V962.495H797.88ZM855.602 968.903H828.665V966.343H855.602V968.903ZM882.538 968.903H863.298V966.343H882.538V968.903ZM617.019 972.751H590.083V970.191H617.019V972.751ZM801.728 972.751H744.007V970.191H801.728V972.751ZM859.45 976.599H832.513V974.039H859.45V976.599ZM882.538 974.039V976.599H867.146V974.039H882.538ZM613.171 980.447H593.931V977.888H613.171V980.447ZM805.576 980.447H740.159V977.888H805.576V980.447ZM844.057 984.579V982.019H859.45V984.579H844.057ZM886.387 984.579H870.995V982.019H886.387V984.579ZM620.867 988.144H601.627V985.584H620.867V988.144ZM809.424 988.144H736.31V985.584H809.424V988.144ZM863.298 990.979H852.665V988.419H863.298V990.979ZM628.564 995.84H609.323V993.28H628.564V995.84ZM813.272 993.28V995.84H736.31V993.28H813.272ZM643.956 1003.54H624.716V1000.98H643.956V1003.54ZM820.969 1003.54H736.31V1000.98H820.969V1003.54ZM667.045 1011.23H632.412V1008.67H667.045V1011.23ZM832.513 1011.23H744.007V1008.67H832.513V1011.23ZM686.285 1018.93H632.412V1016.37H686.285V1018.93ZM832.513 1016.37V1018.93H755.551V1016.37H832.513ZM697.829 1026.62H632.412V1024.06H697.829V1026.62ZM828.665 1026.62H770.943V1024.06H828.665V1026.62ZM701.678 1034.32H628.564V1031.76H701.678V1034.32ZM828.665 1034.32H778.64V1031.76H828.665V1034.32ZM701.678 1042.02H624.716V1039.46H701.678V1042.02ZM824.817 1042.02H782.488V1039.46H824.817V1042.02ZM697.829 1049.71H628.564V1047.15H697.829V1049.71ZM824.817 1049.71H782.488V1047.15H824.817V1049.71ZM697.829 1057.41H643.956V1054.85H697.829V1057.41ZM820.969 1054.85V1057.41H782.488V1054.85H820.969ZM693.981 1065.11H647.804V1062.55H693.981V1065.11ZM817.121 1065.11H778.64V1062.55H817.121V1065.11ZM690.133 1072.8H651.652V1070.24H690.133V1072.8ZM817.121 1072.8H778.64V1070.24H817.121V1072.8ZM686.285 1077.94V1080.5H647.804V1077.94H686.285ZM809.424 1077.94V1080.5H778.64V1077.94H809.424ZM682.437 1088.19H647.804V1085.63H682.437V1088.19ZM805.576 1088.19H786.336V1085.63H805.576V1088.19ZM678.585 1095.89L653.811 1095.82L653.818 1093.26L678.593 1093.33L678.585 1095.89Z" fill="white"/>
<path fill-rule="evenodd" clip-rule="evenodd" d="M730.538 807.299C648.772 807.299 581.738 875.25 581.738 960.006C581.738 1044.76 648.772 1112.71 730.538 1112.71C812.305 1112.71 879.338 1044.76 879.338 960.006C879.338 875.25 812.305 807.299 730.538 807.299ZM543.338 960.006C543.338 854.879 626.737 768.899 730.538 768.899C834.34 768.899 917.738 854.879 917.738 960.006C917.738 1065.13 834.34 1151.11 730.538 1151.11C626.737 1151.11 543.338 1065.13 543.338 960.006Z" fill="white"/>
<path d="M2410.61 1115.49L2337.34 1005.18L2327.21 990.32L2324.9 986.8C2391.72 974.283 2426.28 932.43 2426.28 891.359C2426.28 864.369 2411.53 838.553 2386.19 820.56C2360.38 801.785 2323.98 792.006 2282.05 792.006L2142.99 792.007C2137.92 792.007 2138.28 795.526 2138.28 799.438V830.339L2142.89 837.38V837.771L2203.85 928.042H2142.86V1120.18C2142.86 1124.49 2147.01 1128.01 2152.07 1128.01H2195.09C2199.7 1128.01 2203.85 1124.49 2203.85 1120.18V990.32H2244.73L2254.4 1005.18L2333.2 1123.31L2334.12 1124.49C2335.5 1126.44 2338.27 1128.01 2341.49 1128.01H2403.24C2408.31 1128.01 2411.99 1124.49 2411.99 1119.79C2411.99 1118.62 2411.99 1117.44 2411.07 1116.27L2410.61 1115.49ZM2276.98 914.828L2235.97 853.026H2282.05C2331.81 853.026 2353.93 872.974 2353.93 891.359C2353.93 907.005 2337.34 924.215 2300.02 928.518C2295.87 928.909 2291.26 929.3 2286.66 929.3L2276.98 914.828Z" fill="white"/>
</svg>
