<svg width="1170" height="120" viewBox="0 0 1170 120" fill="none" xmlns="http://www.w3.org/2000/svg">
<path d="M132.305 7.5975H112.833L93.9599 70.8072L78.0826 48.7887L75.0868 44.5947L66.549 32.9113L58.0112 44.5947L55.0155 48.7887L39.1382 70.8072L20.2652 7.5975H0.792969L25.2081 89.83L31.9485 112.298L45.7288 93.2751L66.3993 64.666L87.2195 93.2751L101 112.448L132.305 7.5975Z" fill="white"/>
<path d="M344.117 7.5975V74.4021L276.713 22.4263L257.99 8.04686V112.598H276.713V46.2423L344.117 98.218L362.84 112.598V7.74729L344.117 7.5975Z" fill="white"/>
<path d="M380.785 7.5975V112.448H433.21C447.59 112.448 460.621 106.606 470.058 97.0198C471.106 95.9713 472.155 94.9228 473.053 93.8743C480.842 84.7373 485.486 72.9042 485.486 60.0226C485.486 31.1139 461.969 7.74729 433.06 7.74729L380.785 7.5975ZM399.359 26.4705H433.06C451.634 26.4705 466.762 41.5989 466.762 60.1724C466.762 78.7459 451.634 93.8743 433.06 93.8743H399.359V26.4705Z" fill="white"/>
<path d="M529.89 26.3208H606.431V7.5975H529.89C514.312 7.5975 501.73 20.3293 501.73 35.9071V84.1382C501.73 99.7159 514.312 112.448 529.89 112.448H606.431V93.7245H529.89C524.647 93.7245 520.304 89.3807 520.304 84.1382V64.3664H587.707V45.6432H520.304V35.9071C520.304 30.6646 524.647 26.3208 529.89 26.3208Z" fill="white"/>
<path d="M768.24 93.7245C761.65 92.8257 756.407 87.5832 755.509 80.9927V7.74729H736.785V79.1952C736.785 84.4377 737.984 89.3807 740.23 93.8743C743.376 100.465 748.768 105.857 755.359 109.152C759.852 111.399 764.795 112.598 770.038 112.598H823.212V93.8743L768.24 93.7245Z" fill="white"/>
<path d="M915.721 7.5975V60.0226C915.721 78.5961 900.593 93.7245 882.019 93.7245C863.446 93.7245 848.318 78.5961 848.318 60.0226V7.5975H829.594V60.0226C829.594 88.9313 853.111 112.448 882.019 112.448C910.928 112.448 934.444 88.9313 934.444 60.0226V7.5975H915.721Z" fill="white"/>
<path d="M1051.55 36.5062V35.9071C1051.55 20.3293 1038.82 7.5975 1023.24 7.5975H980.699C965.121 7.5975 952.539 20.3293 952.539 35.9071V36.5062C952.539 42.4977 954.337 48.0397 957.482 52.5333C958.531 54.181 959.729 55.6788 961.077 57.0269C966.17 61.9698 973.06 64.9656 980.699 64.9656H1018.45C1026.38 64.9656 1032.97 71.4063 1032.97 79.345C1032.97 87.2837 1026.38 93.7245 1018.45 93.7245H985.642C977.703 93.7245 971.262 87.2837 971.262 79.345H952.539C952.539 97.6189 967.368 112.448 985.642 112.448H1018.45C1036.72 112.448 1051.55 97.6189 1051.55 79.345C1051.55 71.4063 1048.7 64.0668 1044.06 58.375C1043.61 57.9256 1043.31 57.4763 1042.86 57.0269C1036.87 50.4363 1028.18 46.2423 1018.45 46.2423H980.699C975.456 46.2423 971.113 41.8985 971.113 36.656V36.0568C971.113 30.8143 975.456 26.4705 980.699 26.4705H1023.24C1028.48 26.4705 1032.82 30.8143 1032.82 36.0568V36.656L1051.55 36.5062Z" fill="white"/>
<path d="M1064.51 7.74729V26.4705H1107.5V112.598H1126.22V26.4705H1169.21V7.74729H1064.51Z" fill="white"/>
<path fill-rule="evenodd" clip-rule="evenodd" d="M194.435 14.7767H187.22V13.9767H194.435V14.7767ZM194.435 17.1817H170.476V16.3817H194.435V17.1817ZM194.435 19.5868H169.182V18.7868H194.435V19.5868ZM194.435 21.9918H171.587V21.1918H194.435V21.9918ZM193.232 24.3969H176.397V23.5969H193.232V24.3969ZM193.232 26.802H177.599V26.002H193.232V26.802ZM220.891 26.802H212.473V26.002H220.891V26.802ZM161.966 28.0045H155.353V27.2045H161.966V28.0045ZM189.625 29.207H178.802V28.407H189.625V29.207ZM223.296 29.207H207.663V28.407H223.296V29.207ZM163.169 30.4096H152.346V29.6096H163.169V30.4096ZM187.22 31.6121H178.802V30.8121H187.22V31.6121ZM224.498 31.6121H205.258V30.8121H224.498V31.6121ZM163.169 32.8146H151.144V32.0146H163.169V32.8146ZM184.815 34.0172H180.004V33.2172H184.815V34.0172ZM226.903 34.0172H202.853V33.2172H226.903V34.0172ZM161.966 35.2197H148.739V34.4197H161.966V35.2197ZM229.308 36.4222H201.65V35.6222H229.308V36.4222ZM160.764 37.6248H147.536V36.8248H160.764V37.6248ZM230.511 38.8273H200.447V38.0273H230.511V38.8273ZM159.561 40.0298H146.334V39.2298H159.561V40.0298ZM231.713 41.2323H199.245V40.4324H231.713V41.2323ZM159.561 41.6349V42.4349H145.131V41.6349H159.561ZM171.587 42.4349H164.372V41.6349H171.587V42.4349ZM232.916 43.6374H198.042V42.8374H232.916V43.6374ZM173.992 44.8399H144.12V44.0399H173.992V44.8399ZM232.916 46.0425H196.84V45.2425H232.916V46.0425ZM175.194 47.245H143.506V46.445H175.194V47.245ZM234.118 48.4475H196.84V47.6475H234.118V48.4475ZM172.789 49.6501H142.726V48.8501H172.789V49.6501ZM208.865 50.0526V50.8526H196.84V50.0526H208.865ZM235.321 50.8526H223.296V50.0526H235.321V50.8526ZM171.587 52.0551H142.209V51.2551H171.587V52.0551ZM205.258 53.2577H196.84V52.4577H205.258V53.2577ZM235.321 52.4577V53.2577H218.485V52.4577H235.321ZM169.184 54.4602L141.978 54.5862L141.974 53.7862L169.18 53.6602L169.184 54.4602ZM236.523 54.8627V55.6627H217.283V54.8627H236.523ZM169.182 56.0653V56.8653H141.523V56.0653H169.182ZM236.523 57.2678V58.0678H217.283V57.2678H236.523ZM163.169 59.2703H142.726V58.4703H163.169V59.2703ZM207.663 59.2703H199.245V58.4703H207.663V59.2703ZM226.903 60.4729H218.485V59.6729H226.903V60.4729ZM236.523 60.4729H230.511V59.6729H236.523V60.4729ZM154.751 60.8754V61.6754H142.726V60.8754H154.751ZM210.068 60.8754V61.6754H195.637V60.8754H210.068ZM228.106 62.8779H219.688V62.0779H228.106V62.8779ZM236.523 62.8779H230.511V62.0779H236.523V62.8779ZM153.549 64.0804H145.131V63.2804H153.549V64.0804ZM211.27 64.0804H193.232V63.2804H211.27V64.0804ZM229.308 65.283H220.891V64.483H229.308V65.283ZM236.523 64.483V65.283H231.713V64.483H236.523ZM152.346 66.4855H146.334V65.6855H152.346V66.4855ZM212.473 66.4855H192.03V65.6855H212.473V66.4855ZM224.498 67.7767V66.9767H229.308V67.7767H224.498ZM237.726 67.7767H232.916V66.9767H237.726V67.7767ZM154.751 68.8906H148.739V68.0906H154.751V68.8906ZM213.675 68.8906H190.827V68.0906H213.675V68.8906ZM230.511 69.7767H227.188V68.9767H230.511V69.7767ZM157.156 71.2956H151.144V70.4956H157.156V71.2956ZM214.878 70.4956V71.2956H190.827V70.4956H214.878ZM161.966 73.7007H155.954V72.9007H161.966V73.7007ZM217.283 73.7007H190.827V72.9007H217.283V73.7007ZM169.182 76.1058H158.359V75.3058H169.182V76.1058ZM220.891 76.1058H193.232V75.3058H220.891V76.1058ZM175.194 78.5108H158.359V77.7108H175.194V78.5108ZM220.891 77.7108V78.5108H196.84V77.7108H220.891ZM178.802 80.9159H158.359V80.1159H178.802V80.9159ZM219.688 80.9159H201.65V80.1159H219.688V80.9159ZM180.004 83.321H157.156V82.521H180.004V83.321ZM219.688 83.321H204.055V82.521H219.688V83.321ZM180.004 85.726H155.954V84.926H180.004V85.726ZM218.485 85.726H205.258V84.926H218.485V85.726ZM178.802 88.1311H157.156V87.3311H178.802V88.1311ZM218.485 88.1311H205.258V87.3311H218.485V88.1311ZM178.802 90.5361H161.966V89.7361H178.802V90.5361ZM217.283 89.7361V90.5361H205.258V89.7361H217.283ZM177.599 92.9412H163.169V92.1412H177.599V92.9412ZM216.08 92.9412H204.055V92.1412H216.08V92.9412ZM176.397 95.3463H164.372V94.5463H176.397V95.3463ZM216.08 95.3463H204.055V94.5463H216.08V95.3463ZM175.194 96.9513V97.7513H163.169V96.9513H175.194ZM213.675 96.9513V97.7513H204.055V96.9513H213.675ZM173.992 100.156H163.169V99.3564H173.992V100.156ZM212.473 100.156H206.46V99.3564H212.473V100.156ZM172.788 102.561L165.046 102.539L165.048 101.739L172.79 101.761L172.788 102.561Z" fill="white"/>
<path fill-rule="evenodd" clip-rule="evenodd" d="M189.023 12.3766C163.471 12.3766 142.523 33.6112 142.523 60.0975C142.523 86.5838 163.471 107.818 189.023 107.818C214.575 107.818 235.523 86.5838 235.523 60.0975C235.523 33.6112 214.575 12.3766 189.023 12.3766ZM130.523 60.0975C130.523 27.2453 156.585 0.376556 189.023 0.376556C221.461 0.376556 247.523 27.2453 247.523 60.0975C247.523 92.9497 221.461 119.818 189.023 119.818C156.585 119.818 130.523 92.9497 130.523 60.0975Z" fill="white"/>
<path d="M714.045 108.686L691.15 74.2156L687.982 69.5707L687.262 68.4706C708.142 64.5591 718.941 51.4799 718.941 38.6452C718.941 30.211 714.333 22.1435 706.414 16.5207C698.35 10.6534 686.974 7.5975 673.87 7.5975L630.414 7.59775C628.83 7.59775 628.943 8.69762 628.943 9.91997V19.5765L630.383 21.7768V21.899L649.432 50.1089H630.373V110.153C630.373 111.497 631.669 112.597 633.253 112.597H646.696C648.136 112.597 649.432 111.497 649.432 110.153V69.5707H662.206L665.23 74.2156L689.854 111.131L690.142 111.497C690.574 112.109 691.438 112.597 692.446 112.597H711.742C713.325 112.597 714.477 111.497 714.477 110.031C714.477 109.664 714.478 109.297 714.19 108.93L714.045 108.686ZM672.286 45.9793L659.471 26.6662H673.87C689.422 26.6662 696.334 32.9002 696.334 38.6452C696.334 43.5346 691.15 48.913 679.486 50.2576C678.19 50.3798 676.75 50.502 675.31 50.502L672.286 45.9793Z" fill="white"/>
</svg>
