<svg width="1170" height="120" viewBox="0 0 1170 120" fill="none" xmlns="http://www.w3.org/2000/svg">
<path d="M132.305 7.50745H112.833L93.9599 70.7171L78.0826 48.6986L75.0868 44.5046L66.549 32.8213L58.0112 44.5046L55.0155 48.6986L39.1382 70.7171L20.2652 7.50745H0.792969L25.2081 89.74L31.9485 112.208L45.7288 93.1851L66.3993 64.5759L87.2195 93.1851L101 112.358L132.305 7.50745Z" fill="#28C4A4"/>
<path d="M344.117 7.50745V74.312L276.713 22.3363L257.99 7.95681V112.507H276.713V46.1522L344.117 98.128L362.84 112.507V7.65723L344.117 7.50745Z" fill="#28C4A4"/>
<path d="M380.785 7.50745V112.358H433.21C447.59 112.358 460.621 106.516 470.058 96.9297C471.106 95.8812 472.155 94.8327 473.053 93.7842C480.842 84.6472 485.486 72.8142 485.486 59.9326C485.486 31.0239 461.969 7.65723 433.06 7.65723L380.785 7.50745ZM399.359 26.3805H433.06C451.634 26.3805 466.762 41.5089 466.762 60.0823C466.762 78.6558 451.634 93.7842 433.06 93.7842H399.359V26.3805Z" fill="#28C4A4"/>
<path d="M529.89 26.2307H606.431V7.50745H529.89C514.312 7.50745 501.73 20.2393 501.73 35.817V84.0481C501.73 99.6258 514.312 112.358 529.89 112.358H606.431V93.6344H529.89C524.647 93.6344 520.304 89.2906 520.304 84.0481V64.2764H587.707V45.5531H520.304V35.817C520.304 30.5745 524.647 26.2307 529.89 26.2307Z" fill="#28C4A4"/>
<path d="M768.24 93.6344C761.65 92.7357 756.407 87.4932 755.509 80.9026V7.65723H736.785V79.1052C736.785 84.3477 737.984 89.2906 740.23 93.7842C743.376 100.375 748.768 105.767 755.359 109.062C759.852 111.309 764.795 112.507 770.038 112.507H823.212V93.7842L768.24 93.6344Z" fill="#28C4A4"/>
<path d="M915.721 7.50745V59.9326C915.721 78.506 900.593 93.6344 882.019 93.6344C863.446 93.6344 848.318 78.506 848.318 59.9326V7.50745H829.594V59.9326C829.594 88.8413 853.111 112.358 882.019 112.358C910.928 112.358 934.444 88.8413 934.444 59.9326V7.50745H915.721Z" fill="#28C4A4"/>
<path d="M1051.55 36.4161V35.817C1051.55 20.2393 1038.82 7.50745 1023.24 7.50745H980.699C965.121 7.50745 952.539 20.2393 952.539 35.817V36.4161C952.539 42.4076 954.337 47.9497 957.482 52.4433C958.531 54.0909 959.729 55.5888 961.077 56.9368C966.17 61.8798 973.06 64.8755 980.699 64.8755H1018.45C1026.38 64.8755 1032.97 71.3163 1032.97 79.255C1032.97 87.1936 1026.38 93.6344 1018.45 93.6344H985.642C977.703 93.6344 971.262 87.1936 971.262 79.255H952.539C952.539 97.5288 967.368 112.358 985.642 112.358H1018.45C1036.72 112.358 1051.55 97.5288 1051.55 79.255C1051.55 71.3163 1048.7 63.9768 1044.06 58.2849C1043.61 57.8356 1043.31 57.3862 1042.86 56.9368C1036.87 50.3463 1028.18 46.1522 1018.45 46.1522H980.699C975.456 46.1522 971.113 41.8084 971.113 36.5659V35.9668C971.113 30.7243 975.456 26.3805 980.699 26.3805H1023.24C1028.48 26.3805 1032.82 30.7243 1032.82 35.9668V36.5659L1051.55 36.4161Z" fill="#28C4A4"/>
<path d="M1064.51 7.65723V26.3805H1107.5V112.507H1126.22V26.3805H1169.21V7.65723H1064.51Z" fill="#28C4A4"/>
<path fill-rule="evenodd" clip-rule="evenodd" d="M194.435 14.6866H187.22V13.8866H194.435V14.6866ZM194.435 17.0917H170.476V16.2917H194.435V17.0917ZM194.435 19.4967H169.182V18.6967H194.435V19.4967ZM194.435 21.9018H171.587V21.1018H194.435V21.9018ZM193.232 24.3068H176.397V23.5068H193.232V24.3068ZM193.232 26.7119H177.599V25.9119H193.232V26.7119ZM220.891 26.7119H212.473V25.9119H220.891V26.7119ZM161.966 27.9144H155.353V27.1144H161.966V27.9144ZM189.625 29.117H178.802V28.317H189.625V29.117ZM223.296 29.117H207.663V28.317H223.296V29.117ZM163.169 30.3195H152.346V29.5195H163.169V30.3195ZM187.22 31.522H178.802V30.722H187.22V31.522ZM224.498 31.522H205.258V30.722H224.498V31.522ZM163.169 32.7246H151.144V31.9246H163.169V32.7246ZM184.815 33.9271H180.004V33.1271H184.815V33.9271ZM226.903 33.9271H202.853V33.1271H226.903V33.9271ZM161.966 35.1296H148.739V34.3296H161.966V35.1296ZM229.308 36.3322H201.65V35.5322H229.308V36.3322ZM160.764 37.5347H147.536V36.7347H160.764V37.5347ZM230.511 38.7372H200.447V37.9372H230.511V38.7372ZM159.561 39.9398H146.334V39.1398H159.561V39.9398ZM231.713 41.1423H199.245V40.3423H231.713V41.1423ZM159.561 41.5448V42.3448H145.131V41.5448H159.561ZM171.587 42.3448H164.372V41.5448H171.587V42.3448ZM232.916 43.5474H198.042V42.7474H232.916V43.5474ZM173.992 44.7499H144.12V43.9499H173.992V44.7499ZM232.916 45.9524H196.84V45.1524H232.916V45.9524ZM175.194 47.1549H143.506V46.3549H175.194V47.1549ZM234.118 48.3575H196.84V47.5575H234.118V48.3575ZM172.789 49.56H142.726V48.76H172.789V49.56ZM208.865 49.9625V50.7625H196.84V49.9625H208.865ZM235.321 50.7625H223.296V49.9625H235.321V50.7625ZM171.587 51.9651H142.209V51.1651H171.587V51.9651ZM205.258 53.1676H196.84V52.3676H205.258V53.1676ZM235.321 52.3676V53.1676H218.485V52.3676H235.321ZM169.184 54.3701L141.978 54.4961L141.974 53.6961L169.18 53.5701L169.184 54.3701ZM236.523 54.7727V55.5727H217.283V54.7727H236.523ZM169.182 55.9752V56.7752H141.523V55.9752H169.182ZM236.523 57.1777V57.9777H217.283V57.1777H236.523ZM163.169 59.1803H142.726V58.3803H163.169V59.1803ZM207.663 59.1803H199.245V58.3803H207.663V59.1803ZM226.903 60.3828H218.485V59.5828H226.903V60.3828ZM236.523 60.3828H230.511V59.5828H236.523V60.3828ZM154.751 60.7853V61.5853H142.726V60.7853H154.751ZM210.068 60.7853V61.5853H195.637V60.7853H210.068ZM228.106 62.7879H219.688V61.9879H228.106V62.7879ZM236.523 62.7879H230.511V61.9879H236.523V62.7879ZM153.549 63.9904H145.131V63.1904H153.549V63.9904ZM211.27 63.9904H193.232V63.1904H211.27V63.9904ZM229.308 65.1929H220.891V64.3929H229.308V65.1929ZM236.523 64.3929V65.1929H231.713V64.3929H236.523ZM152.346 66.3955H146.334V65.5955H152.346V66.3955ZM212.473 66.3955H192.03V65.5955H212.473V66.3955ZM224.498 67.6866V66.8866H229.308V67.6866H224.498ZM237.726 67.6866H232.916V66.8866H237.726V67.6866ZM154.751 68.8005H148.739V68.0005H154.751V68.8005ZM213.675 68.8005H190.827V68.0005H213.675V68.8005ZM230.511 69.6866H227.188V68.8866H230.511V69.6866ZM157.156 71.2056H151.144V70.4056H157.156V71.2056ZM214.878 70.4056V71.2056H190.827V70.4056H214.878ZM161.966 73.6106H155.954V72.8106H161.966V73.6106ZM217.283 73.6106H190.827V72.8106H217.283V73.6106ZM169.182 76.0157H158.359V75.2157H169.182V76.0157ZM220.891 76.0157H193.232V75.2157H220.891V76.0157ZM175.194 78.4208H158.359V77.6208H175.194V78.4208ZM220.891 77.6208V78.4208H196.84V77.6208H220.891ZM178.802 80.8258H158.359V80.0258H178.802V80.8258ZM219.688 80.8258H201.65V80.0258H219.688V80.8258ZM180.004 83.2309H157.156V82.4309H180.004V83.2309ZM219.688 83.2309H204.055V82.4309H219.688V83.2309ZM180.004 85.636H155.954V84.836H180.004V85.636ZM218.485 85.636H205.258V84.836H218.485V85.636ZM178.802 88.041H157.156V87.241H178.802V88.041ZM218.485 88.041H205.258V87.241H218.485V88.041ZM178.802 90.4461H161.966V89.6461H178.802V90.4461ZM217.283 89.6461V90.4461H205.258V89.6461H217.283ZM177.599 92.8512H163.169V92.0511H177.599V92.8512ZM216.08 92.8512H204.055V92.0511H216.08V92.8512ZM176.397 95.2562H164.372V94.4562H176.397V95.2562ZM216.08 95.2562H204.055V94.4562H216.08V95.2562ZM175.194 96.8613V97.6613H163.169V96.8613H175.194ZM213.675 96.8613V97.6613H204.055V96.8613H213.675ZM173.992 100.066H163.169V99.2663H173.992V100.066ZM212.473 100.066H206.46V99.2663H212.473V100.066ZM172.788 102.471L165.046 102.449L165.048 101.648L172.79 101.671L172.788 102.471Z" fill="#28C4A4"/>
<path fill-rule="evenodd" clip-rule="evenodd" d="M189.023 12.2865C163.471 12.2865 142.523 33.5211 142.523 60.0074C142.523 86.4938 163.471 107.728 189.023 107.728C214.575 107.728 235.523 86.4938 235.523 60.0074C235.523 33.5211 214.575 12.2865 189.023 12.2865ZM130.523 60.0074C130.523 27.1553 156.585 0.286499 189.023 0.286499C221.461 0.286499 247.523 27.1553 247.523 60.0074C247.523 92.8596 221.461 119.728 189.023 119.728C156.585 119.728 130.523 92.8596 130.523 60.0074Z" fill="#28C4A4"/>
<path d="M714.045 108.596L691.15 74.1256L687.982 69.4807L687.262 68.3805C708.142 64.469 718.941 51.3899 718.941 38.5552C718.941 30.1209 714.333 22.0534 706.414 16.4306C698.35 10.5633 686.974 7.50745 673.87 7.50745L630.414 7.50769C628.83 7.50769 628.943 8.60756 628.943 9.82991V19.4865L630.383 21.6867V21.809L649.432 50.0188H630.373V110.063C630.373 111.407 631.669 112.507 633.253 112.507H646.696C648.136 112.507 649.432 111.407 649.432 110.063V69.4807H662.206L665.23 74.1256L689.854 111.041L690.142 111.407C690.574 112.018 691.438 112.507 692.446 112.507H711.742C713.326 112.507 714.477 111.407 714.477 109.94C714.477 109.574 714.477 109.207 714.19 108.84L714.045 108.596ZM672.286 45.8893L659.471 26.5761H673.87C689.422 26.5761 696.334 32.8101 696.334 38.5552C696.334 43.4446 691.15 48.8229 679.486 50.1675C678.19 50.2897 676.75 50.412 675.31 50.412L672.286 45.8893Z" fill="#28C4A4"/>
</svg>
