<svg width="694" height="600" viewBox="0 0 694 600" fill="none" xmlns="http://www.w3.org/2000/svg">
<path d="M47 268.867H647V278.867H47V268.867Z" fill="white"/>
<path fill-rule="evenodd" clip-rule="evenodd" d="M229.174 204.081L347 0L464.826 204.081H453.279L347 20L240.721 204.081H229.174ZM142.818 353.654L0.589844 600H693.41L551.182 353.654H539.635L676.09 590H17.9104L154.365 353.654H142.818Z" fill="#28C4A4"/>
<path fill-rule="evenodd" clip-rule="evenodd" d="M351.81 119.35H344.595V118.55H351.81V119.35ZM351.81 121.755H327.851V120.955H351.81V121.755ZM351.81 124.16H326.557V123.36H351.81V124.16ZM351.81 126.565H328.962V125.765H351.81V126.565ZM350.608 128.97H333.772V128.17H350.608V128.97ZM350.608 131.375H334.975V130.575H350.608V131.375ZM378.266 131.375H369.848V130.575H378.266V131.375ZM319.342 132.578H312.728V131.778H319.342V132.578ZM347 133.78H336.177V132.98H347V133.78ZM380.671 133.78H365.038V132.98H380.671V133.78ZM320.544 134.983H309.721V134.183H320.544V134.983ZM344.595 136.185H336.177V135.385H344.595V136.185ZM381.873 136.185H362.633V135.385H381.873V136.185ZM320.544 137.388H308.519V136.588H320.544V137.388ZM342.19 138.591H337.38V137.791H342.19V138.591ZM384.278 138.591H360.228V137.791H384.278V138.591ZM319.342 139.793H306.114V138.993H319.342V139.793ZM386.684 140.996H359.025V140.196H386.684V140.996ZM318.139 142.198H304.911V141.398H318.139V142.198ZM387.886 143.401H357.823V142.601H387.886V143.401ZM316.937 144.603H303.709V143.803H316.937V144.603ZM389.089 145.806H356.62V145.006H389.089V145.806ZM316.937 146.208V147.008H302.506V146.208H316.937ZM328.962 147.008H321.747V146.208H328.962V147.008ZM390.291 148.211H355.418V147.411H390.291V148.211ZM331.367 149.413H301.495V148.613H331.367V149.413ZM390.291 150.616H354.215V149.816H390.291V150.616ZM332.57 151.818H300.881V151.018H332.57V151.818ZM391.494 153.021H354.215V152.221H391.494V153.021ZM330.164 154.223H300.101V153.423H330.164V154.223ZM366.24 154.626V155.426H354.215V154.626H366.24ZM392.696 155.426H380.671V154.626H392.696V155.426ZM328.962 156.629H299.584V155.829H328.962V156.629ZM362.633 157.831H354.215V157.031H362.633V157.831ZM392.696 157.031V157.831H375.861V157.031H392.696ZM326.559 159.034L299.353 159.16L299.349 158.36L326.555 158.234L326.559 159.034ZM393.899 159.436V160.236H374.658V159.436H393.899ZM326.557 160.639V161.439H298.899V160.639H326.557ZM393.899 161.841V162.641H374.658V161.841H393.899ZM320.544 163.844H300.101V163.044H320.544V163.844ZM365.038 163.844H356.62V163.044H365.038V163.844ZM384.278 165.046H375.861V164.246H384.278V165.046ZM393.899 165.046H387.886V164.246H393.899V165.046ZM312.127 165.449V166.249H300.101V165.449H312.127ZM367.443 165.449V166.249H353.013V165.449H367.443ZM385.481 167.451H377.063V166.651H385.481V167.451ZM393.899 167.451H387.886V166.651H393.899V167.451ZM310.924 168.654H302.506V167.854H310.924V168.654ZM368.646 168.654H350.608V167.854H368.646V168.654ZM386.684 169.856H378.266V169.056H386.684V169.856ZM393.899 169.056V169.856H389.089V169.056H393.899ZM309.721 171.059H303.709V170.259H309.721V171.059ZM369.848 171.059H349.405V170.259H369.848V171.059ZM381.873 172.35V171.55H386.684V172.35H381.873ZM395.101 172.35H390.291V171.55H395.101V172.35ZM312.127 173.464H306.114V172.664H312.127V173.464ZM371.051 173.464H348.202V172.664H371.051V173.464ZM387.886 174.35H384.563V173.55H387.886V174.35ZM314.532 175.869H308.519V175.069H314.532V175.869ZM372.253 175.069V175.869H348.202V175.069H372.253ZM319.342 178.274H313.329V177.474H319.342V178.274ZM374.658 178.274H348.202V177.474H374.658V178.274ZM326.557 180.679H315.734V179.879H326.557V180.679ZM378.266 180.679H350.608V179.879H378.266V180.679ZM332.57 183.084H315.734V182.284H332.57V183.084ZM378.266 182.284V183.084H354.215V182.284H378.266ZM336.177 185.489H315.734V184.689H336.177V185.489ZM377.063 185.489H359.025V184.689H377.063V185.489ZM337.38 187.894H314.532V187.094H337.38V187.894ZM377.063 187.894H361.43V187.094H377.063V187.894ZM337.38 190.299H313.329V189.499H337.38V190.299ZM375.861 190.299H362.633V189.499H375.861V190.299ZM336.177 192.704H314.532V191.904H336.177V192.704ZM375.861 192.704H362.633V191.904H375.861V192.704ZM336.177 195.11H319.342V194.31H336.177V195.11ZM374.658 194.31V195.11H362.633V194.31H374.658ZM334.975 197.515H320.544V196.715H334.975V197.515ZM373.456 197.515H361.43V196.715H373.456V197.515ZM333.772 199.92H321.747V199.12H333.772V199.92ZM373.456 199.92H361.43V199.12H373.456V199.92ZM332.57 201.525V202.325H320.544V201.525H332.57ZM371.051 201.525V202.325H361.43V201.525H371.051ZM331.367 204.73H320.544V203.93H331.367V204.73ZM369.848 204.73H363.835V203.93H369.848V204.73ZM330.163 207.135L322.421 207.112L322.424 206.312L330.166 206.335L330.163 207.135Z" fill="white"/>
</svg>
